<svg width="104" height="75" viewBox="0 0 104 75" fill="none" xmlns="http://www.w3.org/2000/svg">
<g clip-path="url(#clip0_471_14)">
<path d="M101.853 28.5799C99.5112 26.9582 94.1443 26.3501 89.9485 27.1609C89.461 23.1069 87.2165 19.56 83.3132 16.4181L81.0691 14.7965L79.5075 17.1276C77.5563 20.1681 76.5805 24.4249 76.8729 28.4789C76.9705 29.8974 77.4584 32.4312 78.9221 34.6609C77.5563 35.4718 74.7263 36.4853 71.0185 36.4853H0.469108L0.274108 37.2961C-0.409204 41.3497 -0.409205 54.0182 7.5923 63.7476C13.6422 71.1458 22.6195 74.8958 34.4263 74.8958C59.9916 74.8958 78.9221 62.6323 87.8019 40.4376C91.3147 40.5389 98.8283 40.4376 102.634 32.8362C102.732 32.6335 102.927 32.2281 103.609 30.7082L104 29.8974L101.853 28.5799ZM56.8692 0H46.1361V10.1347H56.8692V0ZM56.8692 12.1618H46.1361V22.2965H56.8692V12.1618ZM44.184 12.1618H33.4509V22.2965H44.184V12.1618ZM31.4989 12.1618H20.7654V22.2965H31.4989V12.1618ZM18.8137 24.3235H8.0802V34.4582H18.8133L18.8137 24.3235ZM31.4989 24.3235H20.7654V34.4582H31.4989V24.3235ZM44.184 24.3235H33.4509V34.4582H44.184V24.3235ZM56.8696 24.3235H46.1357V34.4582H56.8696V24.3235ZM69.5548 24.3235H58.8208V34.4582H69.5548V24.3235Z" fill="#2396ED"/>
</g>
<defs>
<clipPath id="clip0_471_14">
<rect width="104" height="75" fill="white"/>
</clipPath>
</defs>
</svg>
