<svg width="75" height="75" viewBox="0 0 75 75" fill="none" xmlns="http://www.w3.org/2000/svg">
<g clip-path="url(#clip0_510_17)">
<path d="M57.4219 0H17.5781C7.86999 0 0 7.86999 0 17.5781V57.4219C0 67.13 7.86999 75 17.5781 75H57.4219C67.13 75 75 67.13 75 57.4219V17.5781C75 7.86999 67.13 0 57.4219 0Z" fill="#242938"/>
<path d="M42.4611 11.151L58.8015 11.1328L31.3869 38.533L24.2423 45.6378L16.1133 37.4988L42.4611 11.151ZM42.3091 35.6159C42.5212 35.3358 42.9114 35.4741 43.2076 35.4381L58.7874 35.4419L44.5881 49.6274L36.4169 41.5063L42.3091 35.6159Z" fill="#44D1FD"/>
<path d="M28.2717 49.6407L36.4168 41.5059L44.588 49.627L44.622 49.663L36.4189 57.7899L28.2717 49.6407Z" fill="#1FBCFD"/>
<path d="M36.4189 57.79L44.6221 49.6631L58.7933 63.8483C53.4554 63.8603 48.1192 63.8442 42.7834 63.8562C42.4793 63.9242 42.2912 63.6462 42.097 63.4742L36.4189 57.79Z" fill="#08589C"/>
</g>
<defs>
<clipPath id="clip0_510_17">
<rect width="75" height="75" fill="white"/>
</clipPath>
</defs>
</svg>
