<svg width="75" height="75" viewBox="0 0 75 75" fill="none" xmlns="http://www.w3.org/2000/svg">
<g clip-path="url(#clip0_471_8)">
<path d="M73.5855 34.1593L40.8398 1.41536C38.9552 -0.470483 35.8966 -0.470483 34.0096 1.41536L27.2098 8.21516L35.8356 16.841C37.8401 16.1637 40.1388 16.6181 41.7366 18.2159C43.3421 19.824 43.7933 22.1423 43.0995 24.1532L51.4125 32.4665C53.4237 31.7737 55.7443 32.2219 57.3507 33.8309C59.5957 36.075 59.5957 39.7122 57.3507 41.9578C55.1051 44.2037 51.4679 44.2037 49.2211 41.9578C47.5324 40.2674 47.1152 37.7874 47.9701 35.7071L40.2176 27.9545L40.2167 48.356C40.7787 48.6338 41.292 49.0008 41.7366 49.4429C43.9816 51.687 43.9816 55.3245 41.7366 57.5719C39.491 59.8166 35.8521 59.8166 33.6097 57.5719C31.3646 55.3245 31.3646 51.6873 33.6097 49.4432C34.1479 48.9052 34.7872 48.4789 35.4908 48.189V27.5974C34.7861 27.3095 34.1464 26.883 33.6097 26.3432C31.9087 24.6446 31.4997 22.1488 32.3713 20.0602L23.8682 11.5562L1.41504 34.0078C-0.47168 35.8954 -0.47168 38.9543 1.41504 40.8405L34.1613 73.585C36.0466 75.4711 39.1046 75.4711 40.9922 73.585L73.5853 40.9925C75.4714 39.1058 75.4717 36.0451 73.5855 34.1593Z" fill="#DE4C36"/>
</g>
<defs>
<clipPath id="clip0_471_8">
<rect width="75" height="75" fill="white"/>
</clipPath>
</defs>
</svg>
