<svg width="77" height="75" viewBox="0 0 77 75" fill="none" xmlns="http://www.w3.org/2000/svg">
<g clip-path="url(#clip0_470_6)">
<path d="M38.5003 0C17.2399 0 0 17.1921 0 38.4003C0 55.3665 11.0315 69.7608 26.3289 74.8383C28.253 75.1938 28.9595 74.0052 28.9595 72.9909C28.9595 72.0753 28.9234 69.0504 28.9072 65.8419C18.1964 68.1645 15.9363 61.311 15.9363 61.311C14.1848 56.8725 11.6613 55.692 11.6613 55.692C8.16832 53.3088 11.9248 53.358 11.9248 53.358C15.7907 53.6286 17.8264 57.315 17.8264 57.315C21.2604 63.1854 26.8333 61.4883 29.0302 60.507C29.3758 58.0254 30.3735 56.331 31.4747 55.3722C22.9231 54.4014 13.9337 51.1086 13.9337 36.3948C13.9337 32.2023 15.4376 28.7766 17.9004 26.0874C17.5007 25.1202 16.1829 21.2148 18.2734 15.9252C18.2734 15.9252 21.5065 14.8932 28.8639 19.8615C31.9348 19.0107 35.2284 18.5841 38.5003 18.5694C41.7722 18.5841 45.0685 19.0104 48.1452 19.8615C55.4935 14.8935 58.7221 15.9255 58.7221 15.9255C60.8177 21.2145 59.4993 25.1205 59.0996 26.0874C61.5681 28.7766 63.0618 32.2023 63.0618 36.3948C63.0618 51.1437 54.0552 54.3912 45.482 55.3419C46.8629 56.5335 48.0934 58.8705 48.0934 62.4531C48.0934 67.5909 48.0489 71.7261 48.0489 72.9909C48.0489 74.013 48.7419 75.2103 50.6934 74.8329C65.9824 69.75 77 55.3611 77 38.4006C77 17.1921 59.7625 0 38.5003 0ZM14.4198 54.702C14.3349 54.8928 14.0339 54.9501 13.7598 54.819C13.4804 54.6939 13.3237 54.4338 13.4139 54.2424C13.497 54.0459 13.7986 53.991 14.0772 54.1227C14.3569 54.2481 14.5163 54.5106 14.4198 54.702ZM16.3135 56.3874C16.13 56.5572 15.7709 56.4783 15.5272 56.2101C15.2755 55.9425 15.2283 55.5843 15.4144 55.4121C15.6039 55.2423 15.9519 55.3218 16.2043 55.5894C16.4563 55.8603 16.5051 56.2158 16.3135 56.3874ZM17.6128 58.5438C17.3767 58.7073 16.9911 58.554 16.7526 58.2126C16.5168 57.8712 16.5168 57.4617 16.7577 57.2976C16.9968 57.1335 17.3767 57.2811 17.6183 57.6201C17.8535 57.9672 17.8535 58.3767 17.6125 58.5441M19.8095 61.0416C19.5986 61.2738 19.1489 61.2114 18.8199 60.8946C18.4833 60.585 18.3898 60.1458 18.6015 59.9136C18.8151 59.6808 19.2671 59.7462 19.5986 60.0606C19.9325 60.3696 20.0347 60.8121 19.8095 61.0416ZM22.6494 61.8846C22.5562 62.1855 22.1231 62.3223 21.6872 62.1945C21.2517 62.0628 20.9669 61.7106 21.0547 61.4067C21.1452 61.1037 21.5802 60.9615 22.0193 61.0983C22.4542 61.2291 22.74 61.5789 22.6494 61.8849M25.881 62.2428C25.8919 62.5593 25.5222 62.8218 25.0644 62.8278C24.6042 62.838 24.2315 62.5818 24.2264 62.2698C24.2264 61.9503 24.588 61.6902 25.0485 61.6824C25.5063 61.6734 25.881 61.9278 25.881 62.2428ZM29.0558 62.1213C29.1105 62.4303 28.7926 62.7477 28.3378 62.8323C27.8911 62.9136 27.4773 62.7228 27.4204 62.4165C27.3651 62.0997 27.689 61.7823 28.1351 61.7004C28.5905 61.6215 28.9977 61.8072 29.0558 62.1213Z" fill="#161614"/>
</g>
<defs>
<clipPath id="clip0_470_6">
<rect width="77" height="75" fill="white"/>
</clipPath>
</defs>
</svg>
