<svg width="71" height="80" viewBox="0 0 71 80" fill="none" xmlns="http://www.w3.org/2000/svg">
<path d="M70.8333 0H0L6.25 70.8333L35.4167 79.1667L64.5833 70.8333L70.8333 0Z" fill="#E65100"/>
<path d="M35.417 6.25V72.7083L58.7503 66.0417L63.9587 6.25H35.417Z" fill="#FF6D00"/>
<path d="M35.417 41.6665V33.3332H53.3337L51.8753 57.2915L35.417 62.7082V53.9582L43.9587 51.0415L44.5837 41.6665H35.417ZM53.9587 24.9998L54.5837 16.6665H35.417V24.9998H53.9587Z" fill="white"/>
<path d="M35.4163 53.9582V62.7082L18.958 57.2915L18.1247 45.8332H26.458L26.8747 51.0415L35.4163 53.9582ZM25.208 24.9998H35.4163V16.6665H16.458L17.9163 41.6665H35.4163V33.3332H25.833L25.208 24.9998Z" fill="#EEEEEE"/>
</svg>
