<svg width="75" height="75" viewBox="0 0 75 75" fill="none" xmlns="http://www.w3.org/2000/svg">
<g clip-path="url(#clip0_492_4)">
<path d="M0 0H75V75H0V0Z" fill="#F7DF1E"/>
<path d="M19.72 62.6755L25.4593 59.2021C26.5667 61.1652 27.5739 62.8264 29.99 62.8264C32.306 62.8264 33.7664 61.9205 33.7664 58.3967V34.4324H40.8144V58.4963C40.8144 65.7962 36.5353 69.119 30.2921 69.119C24.6539 69.119 21.3812 66.199 19.7197 62.6749M44.6426 61.9202L50.3812 58.5977C51.8921 61.0647 53.8556 62.877 57.329 62.877C60.2496 62.877 62.1117 61.4169 62.1117 59.403C62.1117 56.9866 60.1986 56.1306 56.9766 54.7214L55.2149 53.9655C50.1299 51.8014 46.7569 49.0826 46.7569 43.3434C46.7569 38.057 50.7844 34.0293 57.0776 34.0293C61.5583 34.0293 64.7804 35.5902 67.096 39.6681L61.6081 43.1925C60.3996 41.0277 59.0912 40.172 57.0773 40.172C55.0131 40.172 53.7041 41.481 53.7041 43.1925C53.7041 45.3068 55.0131 46.1632 58.0336 47.4722L59.7955 48.2272C65.7867 50.795 69.1597 53.4127 69.1597 59.3025C69.1597 65.6465 64.1757 69.1199 57.4799 69.1199C50.9353 69.1199 46.7063 65.9986 44.6423 61.9205" fill="black"/>
</g>
<defs>
<clipPath id="clip0_492_4">
<rect width="75" height="75" fill="white"/>
</clipPath>
</defs>
</svg>
