<svg width="100" height="100" viewBox="0 0 100 100" fill="none" xmlns="http://www.w3.org/2000/svg">
<path d="M10.417 67.1175H13.0252V56.6212L17.0627 65.7715C17.5392 66.8788 18.1913 67.2709 19.4702 67.2709C20.7493 67.2709 21.3763 66.879 21.8529 65.7715L25.8905 56.6212V67.1173H28.4986V56.6384C28.4986 55.6159 28.0973 55.1218 27.2699 54.8664C25.2887 54.2359 23.9594 54.7811 23.3575 56.1443L19.3951 65.175L15.5582 56.1443C14.9814 54.7811 13.6271 54.2359 11.6459 54.8664C10.8183 55.1218 10.417 55.6161 10.417 56.6382V67.1175ZM30.6673 58.5741H33.2746V64.3568C33.2503 64.671 33.3736 65.4082 34.8023 65.431C35.5312 65.4428 40.4281 65.431 40.4738 65.431V58.5459H43.0872C43.0992 58.5459 43.0846 67.9355 43.0848 67.9754C43.099 70.2912 40.2654 70.7941 38.9593 70.833H30.7238V69.0447C30.7384 69.0447 38.9532 69.0466 38.9739 69.0445C40.6525 68.8638 40.4543 68.0135 40.4541 67.7273V67.0301H34.9104C32.3311 67.0059 30.6888 65.8586 30.6685 64.5391C30.6665 64.4168 30.7244 58.632 30.6673 58.5741Z" fill="#00618A"/>
<path d="M45.0969 67.1174H52.5952C53.473 67.1174 54.3256 66.9301 55.0029 66.6062C56.1313 66.0781 56.6831 65.3626 56.6831 64.4252V62.4828C56.6831 61.716 56.0562 61.0002 54.8272 60.5233C54.1751 60.2675 53.3726 60.1313 52.5952 60.1313H49.435C48.3822 60.1313 47.8805 59.8076 47.7552 59.0921C47.73 59.0068 47.73 58.9385 47.73 58.8534V57.6438C47.73 57.5755 47.73 57.5072 47.7552 57.4221C47.8805 56.8769 48.1565 56.7233 49.0843 56.6383C49.1594 56.6383 49.2597 56.6211 49.3351 56.6211H56.7834V54.8493H49.4604C48.4071 54.8493 47.8553 54.9174 47.3539 55.0706C45.799 55.5649 45.1219 56.3487 45.1219 57.7117V59.2624C45.1219 60.4552 46.4511 61.4775 48.683 61.716C48.934 61.7329 49.1846 61.7499 49.4352 61.7499H52.1437C52.2442 61.7499 52.3446 61.7499 52.4197 61.7671C53.2473 61.8354 53.5983 61.9886 53.8493 62.2953C53.9996 62.4485 54.0498 62.6021 54.0498 62.7724V64.3227C54.0498 64.5104 53.9245 64.7491 53.6738 64.9534C53.448 65.1579 53.0719 65.2943 52.5702 65.3284C52.4699 65.3284 52.3947 65.3454 52.2944 65.3454H45.0967L45.0969 67.1174ZM72.9535 64.0334C72.9535 65.8565 74.2826 66.879 76.9661 67.0835C77.2167 67.1004 77.4678 67.1174 77.7184 67.1174H84.5148V65.3454H77.6682C76.1385 65.3454 75.5617 64.9534 75.5617 64.0164V54.8491H72.9535V64.0334ZM58.3477 64.1263V57.8086C58.3477 56.2036 59.4535 55.2302 61.6397 54.9228H66.5903C66.8416 54.9228 67.068 54.94 67.3193 54.9739C69.5056 55.2813 70.6112 56.2547 70.6112 57.8597V64.1772C70.6112 65.4791 70.1417 66.1762 69.0594 66.6304L71.6285 68.9937H68.6002L66.5217 67.0816L64.4292 67.2167H61.6397C61.1622 67.2167 60.6597 67.1482 60.1067 66.9947C58.4482 66.5337 57.644 65.6458 57.644 64.1772L58.3477 64.1263ZM61.1626 63.9727C61.1626 64.0582 61.1878 64.1435 61.213 64.2459C61.3637 64.9801 62.0422 65.3899 63.0725 65.3899H65.442L63.2655 63.3874H66.2936L68.1922 65.1339C68.5419 64.9439 68.7722 64.6533 68.8526 64.2801C68.8776 64.1948 68.8776 64.1093 68.8776 64.024V57.9626C68.8776 57.8943 68.8776 57.8088 68.8526 57.7233C68.7017 57.0402 68.0232 56.6478 67.0181 56.6478H63.0725C61.9167 56.6478 61.1628 57.1601 61.1628 57.9626L61.1626 63.9727Z" fill="#E48E00"/>
<path d="M86.8092 51.9098C85.2062 51.8655 83.9815 52.0174 82.9346 52.4674C82.637 52.5953 82.1626 52.5986 82.1141 52.9786C82.2775 53.1533 82.3029 53.4141 82.4329 53.629C82.6827 54.0413 83.105 54.5937 83.4815 54.8835C83.893 55.2002 84.317 55.5386 84.7582 55.8129C85.5427 56.3003 86.4187 56.5787 87.1742 57.0672C87.6194 57.3551 88.0617 57.7177 88.4961 58.0427C88.7108 58.2033 88.8552 58.4531 89.1343 58.5539V58.5074C88.9876 58.3171 88.9499 58.0555 88.8152 57.8568L88.2226 57.2528C87.6431 56.469 86.9075 55.7806 86.1256 55.2087C85.5021 54.7525 84.1064 54.1365 83.8463 53.3967L83.8006 53.3502C84.2427 53.2995 84.7604 53.1364 85.1684 53.0252C85.8539 52.8377 86.4662 52.8861 87.1742 52.6998C87.4931 52.6069 87.8123 52.5138 88.1316 52.421V52.2352C87.7737 51.8609 87.5186 51.3658 87.1283 51.0272C86.1077 50.1413 84.9936 49.2563 83.8463 48.5184C83.21 48.109 82.4236 47.843 81.7493 47.4961C81.5224 47.3796 81.1238 47.3189 80.9741 47.1243C80.6199 46.6642 80.4269 46.0807 80.1536 45.5447C79.5814 44.4218 79.0195 43.1952 78.5126 42.0135C78.1667 41.208 77.9408 40.4136 77.5097 39.6906C75.4397 36.2222 73.2115 34.1289 69.7599 32.0711C69.0255 31.6336 68.1412 31.4605 67.2068 31.2349L65.7025 31.1418C65.3964 31.0114 65.078 30.6299 64.7906 30.4449C63.6471 29.7088 60.7144 28.1074 59.8675 30.2126C59.3328 31.5414 60.6667 32.8382 61.1438 33.5115C61.4787 33.9838 61.9074 34.5133 62.1467 35.0446C62.3041 35.3938 62.3313 35.7438 62.4659 36.1133C62.7974 37.0234 63.0854 38.0134 63.5143 38.8544C63.731 39.2799 63.9699 39.7282 64.2438 40.1087C64.4118 40.3423 64.6996 40.4452 64.7451 40.8058C64.4636 41.2073 64.4475 41.8303 64.2893 42.3389C63.5769 44.6285 63.8456 47.4741 64.882 49.1687C65.2 49.6889 65.949 50.8045 66.9789 50.3767C67.8799 50.0026 67.6786 48.8437 67.9363 47.8215C67.9946 47.5896 67.9587 47.4191 68.073 47.2638V47.3104L68.8935 48.9828C69.5008 49.9795 70.5788 51.0212 71.4921 51.7241C71.9658 52.0886 72.3386 52.7189 72.951 52.9321V52.8855H72.9053C72.7867 52.6971 72.601 52.6189 72.4495 52.4674C72.0927 52.111 71.696 51.6678 71.4009 51.2594C70.5703 50.1101 69.8361 48.8522 69.1673 47.5427C68.8478 46.9176 68.5702 46.2275 68.3009 45.5912C68.1971 45.3459 68.1983 44.975 67.982 44.8477C67.6871 45.3141 67.2527 45.6912 67.0246 46.2418C66.6599 47.1219 66.6127 48.1951 66.4777 49.308C66.3977 49.3372 66.433 49.3171 66.3863 49.3544C65.7514 49.1983 65.5282 48.5322 65.2924 47.9608C64.6953 46.5156 64.5846 44.1885 65.1096 42.525C65.2457 42.0945 65.8599 40.7387 65.6113 40.3413C65.4927 39.9445 65.1011 39.715 64.882 39.412C64.6108 39.0371 64.3401 38.5437 64.1524 38.1109C63.664 36.9841 63.4359 35.7192 62.9217 34.5802C62.6759 34.0356 62.2602 33.4846 61.9188 33.0005C61.5408 32.4644 61.1176 32.069 60.8247 31.4206C60.7205 31.1902 60.579 30.8214 60.7333 30.5844C60.7827 30.4246 60.8519 30.3577 61.0071 30.3056C61.2715 30.098 62.0079 30.3747 62.2833 30.4914C63.0145 30.8009 63.6246 31.0956 64.2438 31.5135C64.5412 31.7145 64.8418 32.103 65.201 32.2106H65.6113C66.2531 32.3609 66.972 32.2572 67.5716 32.4429C68.6313 32.7711 69.581 33.2816 70.4433 33.8367C73.0712 35.5275 75.2196 37.9345 76.6892 40.8058C76.9256 41.268 77.0279 41.7093 77.2361 42.1996C77.6563 43.1886 78.1856 44.2061 78.6035 45.1731C79.0207 46.1377 79.4273 47.1115 80.0169 47.9144C80.327 48.3364 81.5243 48.5629 82.0682 48.797C82.4498 48.9613 83.0747 49.1325 83.436 49.3544C84.1261 49.7787 84.7947 50.2837 85.442 50.7484C85.7655 50.9806 86.7597 51.49 86.8092 51.9098Z" fill="#00618A"/>
<path fill-rule="evenodd" clip-rule="evenodd" d="M66.432 34.2086C66.0977 34.2024 65.8613 34.2459 65.6113 34.3014V34.3479H65.657C65.8165 34.6818 66.0977 34.8966 66.2952 35.1841L66.3406 35.1378C66.623 34.9349 66.7523 34.6106 66.7509 34.1157C66.6378 33.9944 66.6209 33.8421 66.523 33.6974C66.3926 33.5045 66.1404 33.3952 65.9761 33.2329L66.432 34.2086Z" fill="#00618A"/>
<path fill-rule="evenodd" clip-rule="evenodd" d="M85.7393 65.2951C85.7393 66.4654 86.6467 67.254 87.6616 67.254C88.6764 67.254 89.5837 66.4654 89.5837 65.2951C89.5837 64.125 88.6764 63.3364 87.6616 63.3364C86.6467 63.3364 85.7393 64.125 85.7393 65.2951ZM89.1531 65.2951C89.1531 66.1831 88.4869 66.8466 87.6616 66.8466C86.8262 66.8466 86.17 66.1831 86.17 65.2951C86.17 64.4071 86.826 63.7436 87.6616 63.7436C88.4869 63.7436 89.1531 64.4071 89.1531 65.2951ZM88.1795 66.4128H88.6098L87.9796 65.4311C88.3178 65.3945 88.5739 65.2272 88.5739 64.8199C88.5739 64.3653 88.2922 64.1774 87.7489 64.1774H86.8928V66.4128H87.2619V65.4466H87.6051L88.1795 66.4128ZM87.2619 65.1332V64.4908H87.6872C87.9077 64.4908 88.1742 64.5326 88.1742 64.7938C88.1742 65.107 87.9333 65.1332 87.6563 65.1332H87.2619Z" fill="#E48E00"/>
</svg>
