<svg width="64" height="64" viewBox="0 0 64 64" fill="none" xmlns="http://www.w3.org/2000/svg">
<g clip-path="url(#clip0_465_6)">
<mask id="mask0_465_6" style="mask-type:luminance" maskUnits="userSpaceOnUse" x="0" y="0" width="64" height="64">
<path d="M32 64C49.6731 64 64 49.6731 64 32C64 14.3269 49.6731 0 32 0C14.3269 0 0 14.3269 0 32C0 49.6731 14.3269 64 32 64Z" fill="white"/>
</mask>
<g mask="url(#mask0_465_6)">
<path d="M32 64C49.6731 64 64 49.6731 64 32C64 14.3269 49.6731 0 32 0C14.3269 0 0 14.3269 0 32C0 49.6731 14.3269 64 32 64Z" fill="black"/>
<path d="M53.1587 56.0072L24.5839 19.2002H19.2002V44.7894H23.5072V24.6702L49.7777 58.6117C50.9614 57.8197 52.0909 56.9496 53.1587 56.0072Z" fill="url(#paint0_linear_465_6)"/>
<path d="M40.8896 19.2002H45.1564V44.8002H40.8896V19.2002Z" fill="url(#paint1_linear_465_6)"/>
</g>
</g>
<defs>
<linearGradient id="paint0_linear_465_6" x1="38.0923" y1="41.4224" x2="49.4324" y2="55.4779" gradientUnits="userSpaceOnUse">
<stop stop-color="white"/>
<stop offset="1" stop-color="white" stop-opacity="0"/>
</linearGradient>
<linearGradient id="paint1_linear_465_6" x1="43.023" y1="19.2002" x2="42.9508" y2="38.0001" gradientUnits="userSpaceOnUse">
<stop stop-color="white"/>
<stop offset="1" stop-color="white" stop-opacity="0"/>
</linearGradient>
<clipPath id="clip0_465_6">
<rect width="64" height="64" fill="white"/>
</clipPath>
</defs>
</svg>
