<svg width="66" height="75" viewBox="0 0 66 75" fill="none" xmlns="http://www.w3.org/2000/svg">
<g clip-path="url(#clip0_466_19)">
<path d="M33 74.8608C31.9752 74.8608 31.0187 74.5857 30.1305 74.1043L21.0434 68.6711C19.677 67.9146 20.3602 67.6395 20.7701 67.5019C22.6148 66.883 22.9564 66.7455 24.8694 65.6448C25.0746 65.5073 25.3479 65.5761 25.5526 65.7136L32.5218 69.909C32.795 70.0465 33.1366 70.0465 33.3416 69.909L60.6027 54.0222C60.876 53.8846 61.0126 53.6096 61.0126 53.2657V21.5604C61.0126 21.2166 60.876 20.9415 60.6027 20.8039L33.3416 4.98568C33.0683 4.84814 32.7267 4.84814 32.5218 4.98568L5.26066 20.8042C4.98738 20.9417 4.85074 21.2856 4.85074 21.5607V53.2657C4.85074 53.5408 4.98738 53.8846 5.26066 54.0222L12.7081 58.3548C16.7393 60.4179 19.2668 58.0109 19.2668 55.6039V24.3113C19.2668 23.8987 19.6087 23.486 20.0869 23.486H23.5715C23.9815 23.486 24.3914 23.8299 24.3914 24.3113V55.6037C24.3914 61.0369 21.4534 64.2004 16.3291 64.2004C14.7577 64.2004 13.5279 64.2004 10.0436 62.4811L2.86945 58.3548C1.09313 57.323 0 55.3974 0 53.3342V21.6295C0 19.5663 1.09313 17.6407 2.86945 16.6089L30.1305 0.722102C31.8386 -0.240701 34.1614 -0.240701 35.8695 0.722102L63.1305 16.6089C64.9069 17.6404 66 19.566 66 21.6295V53.3345C66 55.3976 64.9069 57.3232 63.1305 58.3548L35.8695 74.2421C34.9813 74.6547 33.9565 74.861 33 74.861M41.4037 53.0594C29.4471 53.0594 26.9876 47.5577 26.9876 42.8809C26.9876 42.4683 27.3292 42.0557 27.8074 42.0557H31.3601C31.77 42.0557 32.1118 42.3307 32.1118 42.7434C32.6584 46.3883 34.2298 48.1766 41.472 48.1766C47.2111 48.1766 49.6709 46.8699 49.6709 43.7752C49.6709 41.9869 48.9877 40.6802 40.0373 39.7859C32.5901 39.0295 27.944 37.3789 27.944 31.3958C27.944 25.8248 32.5898 22.5237 40.3789 22.5237C49.1241 22.5237 53.4285 25.5497 53.9751 32.152C53.9751 32.3584 53.9068 32.5647 53.7701 32.771C53.6335 32.9085 53.4285 33.0461 53.2236 33.0461H49.6709C49.3291 33.0461 48.9877 32.771 48.9191 32.4271C48.0993 28.6447 45.9814 27.4068 40.3789 27.4068C34.0934 27.4068 33.3416 29.6075 33.3416 31.258C33.3416 33.2526 34.2298 33.8713 42.7017 34.9717C51.1057 36.072 55.0682 37.654 55.0682 43.5686C54.9999 49.6208 50.0808 53.0594 41.4037 53.0594Z" fill="#539E43"/>
</g>
<defs>
<clipPath id="clip0_466_19">
<rect width="66" height="75" fill="white"/>
</clipPath>
</defs>
</svg>
