<svg width="75" height="75" viewBox="0 0 75 75" fill="none" xmlns="http://www.w3.org/2000/svg">
<path d="M0 75V0H75V75H0Z" fill="#8892BF"/>
<path d="M18.7623 33.3756C20.7132 33.3756 22.0134 33.7523 22.6634 34.5067C23.3132 35.2611 23.4679 36.5559 23.128 38.3906C22.7727 40.3013 22.0896 41.6651 21.0759 42.4821C20.0624 43.2994 18.5202 43.7074 16.4499 43.7074H13.3263L15.2436 33.3756H18.7623ZM6.25 54.1665H11.3854L12.6037 47.6031H17.002C18.9431 47.6031 20.5395 47.3902 21.7933 46.9627C23.0467 46.5362 24.1856 45.82 25.211 44.8149C26.0718 43.9869 26.7677 43.0731 27.3011 42.0739C27.8336 41.0757 28.2122 39.9733 28.4359 38.7676C28.9791 35.8413 28.5689 33.5619 27.2068 31.9291C25.8452 30.2964 23.6776 29.4799 20.7069 29.4799H10.8321L6.25 54.1665ZM32.2074 22.9165H37.3021L36.084 29.4799H40.6228C43.4788 29.4799 45.4486 30.0015 46.5329 31.0446C47.6169 32.0877 47.9418 33.7785 47.5081 36.1153L45.3764 47.6034H40.2008L42.2275 36.6804C42.4583 35.4379 42.3737 34.5903 41.9729 34.1382C41.5725 33.6863 40.7203 33.4603 39.4167 33.4603H35.3448L32.7205 47.6031H27.6251L32.2074 22.9165ZM58.8443 33.3756C60.7952 33.3756 62.0953 33.7523 62.7454 34.5067C63.3952 35.2611 63.5501 36.5559 63.21 38.3906C62.8547 40.3013 62.1716 41.6651 61.1579 42.4821C60.1444 43.2994 58.6022 43.7074 56.5319 43.7074H53.4082L55.3256 33.3756H58.8443ZM46.332 54.1665H51.4674L52.6852 47.6031H57.084C59.0246 47.6031 60.6212 47.3902 61.8751 46.9627C63.1284 46.5362 64.2675 45.82 65.293 44.8149C66.1536 43.9869 66.8497 43.0731 67.3831 42.0739C67.9156 41.0757 68.2942 39.9733 68.5176 38.7676C69.0611 35.8413 68.6512 33.5619 67.289 31.9291C65.9267 30.2964 63.7596 29.4799 60.7888 29.4799H50.9136L46.332 54.1665Z" fill="white"/>
</svg>
