<svg width="75" height="77" viewBox="0 0 75 77" fill="none" xmlns="http://www.w3.org/2000/svg">
<g clip-path="url(#clip0_468_21)">
<path d="M74.7092 46.1086C74.2595 44.7526 73.0815 43.8082 71.558 43.5816C70.8397 43.4748 70.017 43.5203 69.0435 43.7201C67.3466 44.0686 66.0877 44.2013 65.169 44.227C68.6368 38.3981 71.4567 31.751 73.08 25.4938C75.705 15.3762 74.3023 10.767 72.6631 8.68218C68.3251 3.16385 61.9961 0.19935 54.3608 0.108641C50.2876 0.0590581 46.7119 0.859683 44.8466 1.43543C43.1099 1.13035 41.2425 0.960016 39.2831 0.928517C35.6102 0.870183 32.365 1.66731 29.592 3.3056C28.0569 2.78877 25.593 2.06018 22.7477 1.59527C16.0557 0.501516 10.6621 1.35377 6.71702 4.12839C1.93987 7.48781 -0.274683 13.3246 0.134887 21.4767C0.264965 24.065 1.71926 31.94 4.00911 39.4084C5.32512 43.7011 6.72844 47.2659 8.1801 50.0046C10.2388 53.8882 12.4416 56.1751 14.9146 56.9965C16.3006 57.4561 18.819 57.7781 21.4677 55.5819C21.8034 55.9867 22.2514 56.3889 22.8458 56.7626C23.6008 57.2365 24.524 57.6238 25.4459 57.8534C28.7685 58.6803 31.8807 58.4735 34.5359 57.3144C34.5523 57.7846 34.5649 58.2337 34.5754 58.6216C34.593 59.2508 34.6106 59.8676 34.6337 60.4446C34.791 64.3453 35.0576 67.3783 35.8475 69.5005C35.8908 69.6172 35.9491 69.7951 36.0107 69.9838C36.4047 71.1849 37.0636 73.1956 38.74 74.7703C40.4758 76.4016 42.5755 76.9018 44.4986 76.9018C45.463 76.9018 46.3832 76.7758 47.1904 76.6038C50.0673 75.9898 53.3348 75.0547 55.6985 71.7041C57.9332 68.5366 59.0196 63.7658 59.2161 56.2486C59.2415 56.0359 59.2654 55.8329 59.2876 55.6396L59.3345 55.2424L59.861 55.2885L59.9966 55.2975C62.9269 55.4305 66.5099 54.8119 68.7104 53.7943C70.4491 52.991 76.0211 50.0624 74.7092 46.1086Z" fill="black"/>
<path d="M69.6994 46.8774C60.9865 48.6668 60.3874 45.73 60.3874 45.73C69.5866 32.1403 73.4324 14.8903 70.1139 10.6684C61.06 -0.848034 45.3877 4.59855 45.126 4.73972L45.042 4.75488C43.3205 4.39905 41.3942 4.1873 39.2289 4.15201C35.2867 4.08784 32.2961 5.18101 30.0267 6.89426C30.0267 6.89426 2.06871 -4.57233 3.3692 21.3154C3.64576 26.8227 11.2981 62.9867 20.4253 52.0635C23.7613 48.0691 26.9848 44.6919 26.9848 44.6919C28.5856 45.7507 30.5022 46.2908 32.5114 46.0969L32.6675 45.965C32.6189 46.4609 32.6412 46.9459 32.7299 47.5202C30.3786 50.1356 31.0697 50.5947 26.3693 51.5581C21.6129 52.534 24.407 54.2711 26.2313 54.7256C28.4429 55.2759 33.5593 56.0558 37.0164 51.2378L36.8787 51.7876C37.7998 52.5223 38.4466 56.566 38.3382 60.2319C38.2298 63.8976 38.1575 66.4144 38.8832 68.3802C39.6094 70.346 40.3328 74.7692 46.5121 73.4511C51.6751 72.3495 54.3507 69.495 54.7231 64.7332C54.9871 61.3481 55.585 61.8486 55.6225 58.822L56.1021 57.3893C56.6549 52.8005 56.19 51.32 59.3708 52.0087L60.1442 52.0763C62.485 52.1822 65.5495 51.7013 67.348 50.8691C71.2205 49.0801 73.5173 46.0925 69.6988 46.8774H69.6994Z" fill="#336791"/>
<path d="M31.6632 23.7779C30.878 23.6691 30.167 23.7697 29.8072 24.041C29.6051 24.1935 29.5424 24.3703 29.5254 24.4919C29.4803 24.8142 29.707 25.1706 29.8465 25.3544C30.2408 25.8747 30.8168 26.2323 31.3869 26.311C31.4695 26.3225 31.5517 26.3281 31.6336 26.328C32.5843 26.328 33.4488 25.5909 33.525 25.047C33.6202 24.3656 32.6267 23.9112 31.6632 23.7779ZM57.6741 23.7995C57.5991 23.2655 56.6446 23.1132 55.7388 23.2386C54.8341 23.364 53.9569 23.7706 54.0302 24.3058C54.0888 24.722 54.8437 25.4325 55.7373 25.4325C55.8129 25.4325 55.889 25.4273 55.9658 25.4168C56.5623 25.3345 57 24.9574 57.208 24.7401C57.5244 24.4088 57.7078 24.0395 57.6741 23.7995Z" fill="white"/>
<path d="M72.5983 46.6741C72.2661 45.674 71.1967 45.3523 69.4202 45.7175C64.1453 46.8013 62.2562 46.0506 61.636 45.5958C65.7361 39.3775 69.109 31.8607 70.9287 24.8476C71.7906 21.5255 72.2666 18.4402 72.3056 15.9255C72.3487 13.1654 71.8764 11.1372 70.9026 9.89818C66.9762 4.90339 61.2135 2.22414 54.2379 2.15064C49.4423 2.09697 45.3906 3.31876 44.6051 3.66235C42.951 3.25285 41.1478 3.00143 39.1846 2.96935C35.5846 2.91131 32.4727 3.76939 29.8963 5.51851C28.7772 5.10377 25.885 4.11531 22.348 3.54801C16.2331 2.56801 11.374 3.3106 7.90639 5.75622C3.76879 8.67464 1.85864 13.8914 2.22866 21.2612C2.35317 23.7407 3.77231 31.3683 6.01176 38.6731C8.95961 48.2876 12.1641 53.7304 15.5356 54.8501C15.9302 54.9811 16.3852 55.0727 16.8871 55.0727C18.1169 55.0727 19.6248 54.5208 21.1937 52.6431C23.1073 50.3578 25.0867 48.1279 27.1295 45.9563C28.4549 46.6645 29.911 47.06 31.4001 47.0997C31.4033 47.1386 31.4067 47.1773 31.4104 47.2158C31.1541 47.5201 30.9031 47.8288 30.6575 48.1418C29.6256 49.4458 29.4109 49.7174 26.0895 50.3981C25.1447 50.5924 22.6354 51.1072 22.5985 52.8583C22.5586 54.7717 25.5648 55.5752 25.9073 55.6604C27.1008 55.9579 28.2507 56.1046 29.3473 56.1046C32.0142 56.1046 34.3612 55.2319 36.2368 53.5435C36.179 60.3644 36.4647 67.0856 37.2873 69.1333C37.9612 70.8098 39.6071 74.9069 44.8061 74.9066C45.569 74.9066 46.4086 74.8182 47.3324 74.6211C52.7584 73.4631 55.1148 71.0756 56.0262 65.8118C56.514 62.9987 57.351 56.2813 57.7448 52.6781C58.5756 52.9362 59.6453 53.0543 60.8016 53.0541C63.2133 53.0541 65.9962 52.5439 67.7414 51.7375C69.702 50.831 73.2399 48.6067 72.5983 46.6741ZM59.6766 22.3258C59.6587 23.3895 59.5117 24.3552 59.3558 25.3632C59.1879 26.4473 59.0145 27.5682 58.9708 28.9288C58.9278 30.253 59.0939 31.6297 59.2544 32.9611C59.579 35.6503 59.9122 38.4188 58.6228 41.1506C58.4089 40.7726 58.2182 40.3821 58.0515 39.9813C57.8913 39.5945 57.5432 38.9733 57.0613 38.1134C55.1866 34.7663 50.7964 26.928 53.0438 23.7296C53.7132 22.7776 55.4122 21.7988 59.6766 22.3258ZM54.5075 4.3046C60.7577 4.44197 65.7018 6.76977 69.2022 11.2229C71.887 14.6386 68.9306 30.1807 60.3721 43.5889C60.286 43.4799 60.1995 43.3713 60.1125 43.2631L60.0041 43.1283C62.2158 39.4921 61.7833 35.8944 61.3984 32.7048C61.2402 31.3958 61.0908 30.1594 61.1289 28.998C61.1681 27.7671 61.3316 26.7113 61.4898 25.6905C61.684 24.4325 61.8818 23.1308 61.8273 21.5963C61.868 21.4353 61.8844 21.2452 61.863 21.0194C61.7239 19.548 60.0364 15.1441 56.5969 11.1582C54.7155 8.97797 51.9718 6.53818 48.2256 4.8926C49.837 4.5601 52.0404 4.25006 54.5075 4.3046ZM19.5334 51.2688C17.8049 53.3378 16.6114 52.9412 16.2188 52.8111C13.6612 51.9618 10.6934 46.5799 8.0769 38.0458C5.81284 30.6613 4.48979 23.2358 4.38491 21.1536C4.05444 14.5683 5.65786 9.97897 9.15092 7.51264C14.8357 3.49931 24.182 5.90147 27.9375 7.11976C27.8836 7.17285 27.8274 7.22243 27.7741 7.27639C21.6112 13.4726 21.7574 24.0589 21.7726 24.7061C21.772 24.9558 21.7931 25.3093 21.8218 25.7955C21.9279 27.5761 22.1253 30.89 21.598 34.6429C21.1081 38.1303 22.188 41.5437 24.5602 44.008C24.8036 44.2605 25.0594 44.5008 25.3269 44.7278C24.271 45.8537 21.9762 48.3433 19.5334 51.2688ZM26.1191 42.5208C24.2072 40.5346 23.3388 37.7719 23.7364 34.9404C24.293 30.9761 24.0876 27.5233 23.9772 25.6683C23.9617 25.4087 23.9479 25.1812 23.94 25.0018C24.8403 24.2071 29.0124 21.9816 31.9878 22.6603C33.3455 22.9698 34.1728 23.8903 34.5167 25.4735C36.2968 33.6702 34.7523 37.0865 33.5113 39.8319C33.2555 40.3975 33.0138 40.9321 32.8076 41.4851L32.6476 41.9127C32.2427 42.9936 31.866 43.9987 31.6325 44.953C29.5998 44.9472 27.6226 44.0827 26.1191 42.5205M26.4311 53.5747C25.8375 53.4271 25.3038 53.1707 24.9906 52.9581C25.2522 52.8356 25.7177 52.6688 26.5251 52.5031C30.4325 51.7025 31.036 51.1372 32.3538 49.4715C32.6558 49.0894 32.9983 48.6566 33.4726 48.1293L33.4732 48.1287C34.1795 47.3412 34.5027 47.4748 35.0886 47.7168C35.5635 47.9123 36.0261 48.5049 36.2136 49.1571C36.3024 49.4651 36.402 50.0496 36.0759 50.5046C33.3232 54.3418 29.3119 54.2925 26.4311 53.5747ZM46.88 72.519C42.0999 73.5387 40.4075 71.1105 39.2921 68.3348C38.5723 66.5428 38.2184 58.4618 38.4695 49.5377C38.4727 49.419 38.4557 49.3044 38.4229 49.1965C38.3936 48.9834 38.3489 48.7726 38.2893 48.5659C37.9161 47.2674 37.0064 46.1812 35.9151 45.7309C35.4815 45.5521 34.6858 45.224 33.7295 45.4675C33.9334 44.631 34.2871 43.6863 34.6706 42.6634L34.8314 42.2332C35.0124 41.7482 35.2398 41.2456 35.48 40.7136C36.7788 37.8413 38.5574 33.907 36.627 25.0191C35.9039 21.69 33.4893 20.0642 29.829 20.4419C27.6346 20.668 25.6269 21.5494 24.6255 22.0548C24.4102 22.1633 24.2133 22.2683 24.0293 22.3704C24.3088 19.0163 25.3647 12.7478 29.3145 8.78168C31.8015 6.28501 35.1135 5.05185 39.1489 5.11835C47.1 5.24785 52.1989 9.31018 55.0764 12.6956C57.5561 15.6125 58.8988 18.5511 59.4346 20.136C55.4048 19.7279 52.6641 20.5198 51.2748 22.4973C48.2523 26.7988 52.9284 35.1475 55.1757 39.1599C55.5879 39.8952 55.9436 40.5308 56.0555 40.8008C56.7873 42.5666 57.7348 43.7455 58.4265 44.6059C58.6386 44.8696 58.8443 45.1254 59.0007 45.3488C57.7802 45.6991 55.5879 46.5085 55.7877 50.5542C55.6266 52.5842 54.4808 62.0884 53.8987 65.4464C53.1302 69.8826 51.4905 71.5346 46.88 72.519ZM66.8324 49.788C65.5843 50.3646 63.4957 50.7971 61.5118 50.8902C59.3204 50.9923 58.2047 50.6458 57.9422 50.4326C57.8192 47.9114 58.7617 47.648 59.7592 47.3692C59.916 47.3254 60.0689 47.2826 60.2165 47.2312C60.3081 47.3057 60.4089 47.3792 60.5189 47.4517C62.2802 48.6091 65.4217 48.7339 69.857 47.8224L69.9056 47.8128C69.3074 48.3696 68.2837 49.1168 66.8324 49.788Z" fill="white"/>
</g>
<defs>
<clipPath id="clip0_468_21">
<rect width="75" height="77" fill="white"/>
</clipPath>
</defs>
</svg>
