<svg width="75" height="75" viewBox="0 0 75 75" fill="none" xmlns="http://www.w3.org/2000/svg">
<g clip-path="url(#clip0_468_26)">
<path d="M74.6933 42.2616C77.318 21.7154 62.8078 2.93115 42.2991 0.306738C21.7904 -2.31797 2.93115 12.1922 0.306738 32.7009C-2.31797 53.2096 12.1922 72.0313 32.7009 74.6933C53.2471 77.318 72.0313 62.8078 74.6933 42.2616Z" fill="#FF6C37"/>
<path d="M51.0353 24.0773L35.2129 39.8997L30.751 35.4377C46.3108 19.8782 47.8483 21.2279 51.0353 24.0773Z" fill="white"/>
<path d="M35.2129 40.2746C35.1004 40.2746 35.0254 40.2371 34.9504 40.1621L30.4513 35.7004C30.4157 35.6666 30.3875 35.6259 30.3681 35.5808C30.3488 35.5357 30.3389 35.4871 30.3389 35.4381C30.3389 35.389 30.3488 35.3405 30.3681 35.2954C30.3875 35.2503 30.4157 35.2096 30.4513 35.1757C46.2733 19.3534 47.923 20.8531 51.2599 23.8525C51.3349 23.9275 51.3724 24.0025 51.3724 24.115C51.3724 24.2275 51.3349 24.3025 51.2599 24.3775L35.4379 40.1621C35.4004 40.2371 35.2879 40.2746 35.2129 40.2746ZM31.2763 35.4379L35.2129 39.3749L50.4727 24.115C47.6983 21.6406 45.8233 20.8903 31.2763 35.4379Z" fill="#FF6C37"/>
<path d="M39.7491 44.4362L35.4375 40.1243L51.2596 24.3022C55.4965 28.5767 49.1602 35.5127 39.7491 44.4362Z" fill="white"/>
<path d="M39.7497 44.8113C39.6372 44.8113 39.5622 44.7738 39.4875 44.6988L35.1756 40.3869C35.1006 40.3119 35.1006 40.2369 35.1006 40.1244C35.1006 40.0121 35.1381 39.9369 35.2131 39.8622L51.0354 24.0398C51.0693 24.0042 51.11 23.9759 51.1551 23.9566C51.2003 23.9372 51.2489 23.9272 51.2979 23.9272C51.347 23.9272 51.3956 23.9372 51.4408 23.9566C51.4859 23.9759 51.5266 24.0042 51.5605 24.0398C52.0392 24.4828 52.4174 25.0232 52.6696 25.6247C52.9218 26.2262 53.0422 26.8748 53.0227 27.5267C52.9477 31.6886 48.2238 36.9749 40.05 44.6988C39.9375 44.7738 39.825 44.8113 39.75 44.8113M35.9634 40.1244C38.3628 42.5616 39.3753 43.5363 39.75 43.9113C46.0488 37.9124 52.1602 31.7636 52.198 27.5267C52.2354 26.552 51.8604 25.577 51.2229 24.8273L35.9634 40.1244Z" fill="#FF6C37"/>
<path d="M30.8264 35.5502L34.0133 38.7371C34.0883 38.8121 34.0883 38.8871 34.0133 38.9621C33.9758 38.9996 33.9758 38.9996 33.9383 38.9996L27.3394 40.4243C27.0019 40.4618 26.7019 40.2368 26.6269 39.8996C26.5894 39.7121 26.6644 39.5246 26.7769 39.4121L30.6014 35.5877C30.6764 35.5127 30.7889 35.4752 30.8264 35.5502Z" fill="white"/>
<path d="M27.2267 40.7996C26.6642 40.7996 26.252 40.3496 26.252 39.7874C26.252 39.5249 26.3645 39.2624 26.552 39.0749L30.3761 35.2505C30.6011 35.063 30.9011 35.063 31.1261 35.2505L34.313 38.4374C34.538 38.6249 34.538 38.9624 34.313 39.1874C34.238 39.2624 34.163 39.2999 34.0505 39.3374L27.4517 40.7621C27.3767 40.7621 27.3017 40.7996 27.2267 40.7996ZM30.7136 35.963L27.0392 39.6374C26.9642 39.7124 26.9267 39.8249 27.0017 39.9374C27.0392 40.0499 27.1517 40.0871 27.2642 40.0499L33.4505 38.6999L30.7136 35.963Z" fill="#FF6C37"/>
<path d="M59.3963 15.3042C56.9968 12.9795 53.1349 13.0545 50.8105 15.4917C48.4858 17.9286 48.5608 21.753 50.998 24.0774C51.96 25.0068 53.2024 25.5917 54.5317 25.7409C55.8609 25.8902 57.2022 25.5953 58.3463 24.9024L54.0718 20.628L59.3963 15.3042Z" fill="white"/>
<path d="M55.1969 26.1394C51.635 26.1394 48.748 23.2524 48.748 19.6905C48.748 16.1286 51.635 13.2417 55.1969 13.2417C56.8463 13.2417 58.4588 13.8792 59.6588 15.0414C59.7335 15.1164 59.771 15.1914 59.771 15.3039C59.771 15.4164 59.7335 15.4914 59.6585 15.5664L54.5969 20.6277L58.5713 24.6021C58.7213 24.7521 58.7213 24.9771 58.5713 25.1271L58.4963 25.2021C57.5213 25.8019 56.3591 26.1394 55.1969 26.1394ZM55.1969 14.0295C52.0475 14.0295 49.4978 16.5789 49.5353 19.7283C49.5353 22.8777 52.085 25.4274 55.2344 25.3899C56.0966 25.3899 56.9591 25.2024 57.7463 24.7899L53.8097 20.8905C53.7347 20.8155 53.6972 20.7405 53.6972 20.628C53.6972 20.5158 53.7347 20.4405 53.8097 20.3658L58.8338 15.3414C57.8213 14.4792 56.5466 14.0295 55.1969 14.0295Z" fill="#FF6C37"/>
<path d="M59.5086 15.4168L59.4336 15.3418L54.0723 20.6281L58.3089 24.865C58.7214 24.6025 59.1336 24.3025 59.4711 23.965C60.0391 23.4087 60.4911 22.7451 60.8008 22.0127C61.1105 21.2804 61.2717 20.4939 61.2752 19.6987C61.2787 18.9036 61.1244 18.1157 60.8211 17.3807C60.5178 16.6457 60.0717 15.9781 59.5086 15.4168Z" fill="white"/>
<path d="M58.3464 25.2775C58.2339 25.2775 58.1589 25.24 58.0839 25.165L53.8095 20.8906C53.7348 20.8156 53.6973 20.7406 53.6973 20.6281C53.6973 20.5159 53.7348 20.4406 53.8098 20.3659L59.1336 15.0417C59.1674 15.0062 59.2082 14.9779 59.2533 14.9585C59.2984 14.9392 59.347 14.9292 59.3961 14.9292C59.4452 14.9292 59.4938 14.9392 59.5389 14.9585C59.584 14.9779 59.6247 15.0062 59.6586 15.0417L59.7711 15.1167C62.2833 17.6287 62.2833 21.6781 59.8086 24.2275C59.4336 24.6025 59.0214 24.94 58.5714 25.2025C58.4589 25.24 58.3839 25.2775 58.3464 25.2775ZM54.597 20.6281L58.3839 24.415C58.6839 24.2275 58.9839 23.965 59.2086 23.7403C61.3458 21.6031 61.4583 18.1162 59.3961 15.8665L54.597 20.6281Z" fill="#FF6C37"/>
<path d="M51.6722 24.7523C51.2393 24.3203 50.6528 24.0776 50.0412 24.0776C49.4296 24.0776 48.8431 24.3203 48.4103 24.7523L34.2754 38.8872L36.6373 41.2494L51.5972 28.1268C52.5722 27.3018 52.6469 25.8396 51.8222 24.8648C51.7472 24.8273 51.7097 24.7898 51.6722 24.7523Z" fill="white"/>
<path d="M36.6002 41.6246C36.4877 41.6246 36.4127 41.5871 36.3377 41.5121L33.9758 39.1498C33.9403 39.116 33.9119 39.0753 33.8926 39.0302C33.8733 38.985 33.8633 38.9364 33.8633 38.8874C33.8633 38.8383 33.8733 38.7897 33.8926 38.7445C33.9119 38.6994 33.9403 38.6587 33.9758 38.6249L48.1107 24.49C48.3588 24.2405 48.6539 24.0424 48.9788 23.9073C49.3038 23.7722 49.6522 23.7026 50.0041 23.7026C50.3561 23.7026 50.7045 23.7722 51.0295 23.9073C51.3544 24.0424 51.6494 24.2405 51.8976 24.49C52.1471 24.7381 52.3452 25.0332 52.4803 25.3581C52.6154 25.6831 52.685 26.0315 52.685 26.3834C52.685 26.7354 52.6154 27.0838 52.4803 27.4088C52.3452 27.7337 52.1471 28.0287 51.8976 28.2769L51.7851 28.3894L36.8252 41.5121C36.7877 41.5871 36.7127 41.6246 36.6002 41.6246ZM34.8005 38.8874L36.6377 40.7246L51.3351 27.8269C52.1601 27.1519 52.2351 25.9147 51.5601 25.09C50.8854 24.265 49.6479 24.19 48.8232 24.865C48.7857 24.9025 48.7482 24.94 48.6732 24.9775L34.8005 38.8874Z" fill="#FF6C37"/>
<path d="M23.4397 54.9718C23.29 55.0468 23.215 55.1968 23.2522 55.3468L23.8897 58.0462C24.0397 58.4212 23.8147 58.8712 23.4022 58.9837C23.1025 59.0962 22.765 58.9837 22.5775 58.7587L18.4531 54.6718L31.9133 41.2119L36.5627 41.2869L39.7121 44.4363C38.9621 45.0735 34.4255 49.4604 23.4397 54.9718Z" fill="white"/>
<path d="M23.1399 59.3584C22.8399 59.3584 22.5399 59.2462 22.3524 59.0212L18.2655 54.9343C18.1908 54.8593 18.1533 54.7843 18.1533 54.6721C18.1533 54.5596 18.1908 54.4846 18.2658 54.4096L31.7257 40.9494C31.8007 40.8744 31.9132 40.8369 31.9882 40.8369L36.6376 40.9119C36.7498 40.9119 36.8251 40.9494 36.8998 41.0244L40.0492 44.1738C40.1242 44.2488 40.1617 44.3613 40.1617 44.4738C40.1617 44.5863 40.1242 44.6613 40.0117 44.7363L39.7492 44.961C35.7751 48.4479 30.376 51.9349 23.6646 55.2718L24.3021 57.934C24.4146 58.4212 24.1896 58.9462 23.7396 59.2084C23.5146 59.3212 23.3271 59.3584 23.1399 59.3584ZM19.0155 54.6724L22.8774 58.4965C22.9899 58.684 23.2149 58.759 23.4021 58.6465C23.5896 58.534 23.6646 58.309 23.5521 58.1215L22.9149 55.4221C22.8399 55.0846 22.9899 54.7846 23.2899 54.6349C29.926 51.2979 35.2876 47.8485 39.2245 44.4366L36.4501 41.6622L32.1382 41.5872L19.0155 54.6724Z" fill="#FF6C37"/>
<path d="M15.2664 57.8963L18.4906 54.6719L23.29 59.4707L15.6411 58.946C15.3036 58.9085 15.0786 58.6085 15.1164 58.271C15.1164 58.121 15.1539 57.971 15.2661 57.896" fill="white"/>
<path d="M23.2898 59.8085L15.6035 59.2838C15.041 59.2463 14.666 58.7588 14.7038 58.1963C14.7413 57.9713 14.8163 57.7466 15.0038 57.5966L18.2282 54.3722C18.262 54.3367 18.3028 54.3084 18.3479 54.2891C18.3929 54.2698 18.4415 54.2598 18.4906 54.2598C18.5396 54.2598 18.5882 54.2698 18.6333 54.2891C18.6784 54.3084 18.7191 54.3367 18.7529 54.3722L23.552 59.171C23.6645 59.2838 23.702 59.4338 23.627 59.5835C23.552 59.7335 23.4396 59.8085 23.2898 59.8085ZM18.4904 55.1972L15.5285 58.1591C15.416 58.2338 15.416 58.4213 15.5285 58.4963C15.566 58.5338 15.6035 58.5713 15.6785 58.5713L22.3148 59.0213L18.4904 55.1972ZM30.6009 42.9368C30.3759 42.9368 30.2259 42.7493 30.2259 42.5618C30.2259 42.4493 30.2634 42.3743 30.3384 42.2993L33.9753 38.6623C34.0091 38.6268 34.0498 38.5985 34.095 38.5791C34.1401 38.5598 34.1887 38.5498 34.2378 38.5498C34.2869 38.5498 34.3355 38.5598 34.3806 38.5791C34.4257 38.5985 34.4664 38.6268 34.5003 38.6623L36.8622 41.0246C36.9747 41.1371 37.0122 41.2496 36.9747 41.3996C36.9372 41.5121 36.8247 41.6246 36.6747 41.6621L30.6759 42.9365L30.6009 42.9368ZM34.2378 39.4498L31.7631 41.9243L35.8125 41.0621L34.2378 39.4498Z" fill="#FF6C37"/>
<path d="M36.5626 41.2871L32.4385 42.1868C32.1385 42.2618 31.8385 42.0743 31.7635 41.7743C31.726 41.5868 31.7635 41.3993 31.9135 41.2496L34.2007 38.9624L36.5626 41.2871Z" fill="white"/>
<path d="M32.3633 42.5617C32.2399 42.5629 32.1174 42.5394 32.0032 42.4927C31.8889 42.446 31.7851 42.377 31.6978 42.2897C31.6105 42.2025 31.5415 42.0986 31.4948 41.9844C31.4481 41.8701 31.4246 41.7477 31.4258 41.6242C31.4258 41.362 31.5383 41.137 31.6883 40.9495L33.9755 38.6623C34.0094 38.6267 34.0501 38.5984 34.0952 38.5791C34.1404 38.5597 34.1889 38.5498 34.238 38.5498C34.2871 38.5498 34.3357 38.5597 34.3808 38.5791C34.426 38.5984 34.4667 38.6267 34.5005 38.6623L36.8624 41.0245C36.9749 41.137 37.0124 41.2495 36.9749 41.3995C36.9374 41.512 36.8249 41.6245 36.6749 41.662L32.5508 42.5617H32.3633ZM34.238 39.4498L32.2133 41.4742C32.1383 41.5495 32.1383 41.6245 32.1758 41.6992C32.2133 41.7742 32.2883 41.8117 32.4008 41.8117L35.8502 41.0617L34.238 39.4498ZM59.5458 19.0158C59.4708 18.7911 59.2083 18.6786 58.9833 18.7536C58.7586 18.8286 58.6461 19.0908 58.7211 19.3161C58.7211 19.3533 58.7586 19.3908 58.7586 19.4283C58.9836 19.8783 58.9086 20.4408 58.6086 20.853C58.4586 21.0405 58.4961 21.303 58.6461 21.453C58.8336 21.603 59.0958 21.5655 59.2458 21.378C59.8083 20.6655 59.9208 19.7658 59.5458 19.0158Z" fill="#FF6C37"/>
</g>
<defs>
<clipPath id="clip0_468_26">
<rect width="75" height="75" fill="white"/>
</clipPath>
</defs>
</svg>
