<svg width="75" height="91" viewBox="0 0 75 91" fill="none" xmlns="http://www.w3.org/2000/svg">
<g clip-path="url(#clip0_469_2)">
<path d="M74.5055 69.136L43.3591 2.86154C42.9722 2.04601 42.3723 1.3505 41.6231 0.848625C40.8739 0.34675 40.0032 0.0571895 39.1032 0.0105958C38.2015 -0.0499506 37.3005 0.138386 36.4981 0.555123C35.6958 0.97186 35.0229 1.60104 34.5525 2.37425L0.771151 57.1971C0.25766 58.0249 -0.00974288 58.9822 0.000271303 59.9569C0.0102855 60.9315 0.297302 61.8831 0.827694 62.7002L17.3435 88.3273C17.9683 89.2893 18.8868 90.0231 19.962 90.4193C21.0371 90.8155 22.2112 90.8528 23.3092 90.5257L71.2386 76.3203C71.9603 76.1088 72.6283 75.7447 73.1974 75.2523C73.7665 74.76 74.2235 74.1509 74.5375 73.4664C74.847 72.7854 75.0048 72.045 74.9997 71.2967C74.9946 70.5484 74.8267 69.8103 74.5079 69.1336L74.5055 69.136ZM67.5323 71.9784L26.8615 84.0286C25.6208 84.3984 24.4298 83.3208 24.6879 82.0662L39.2186 12.3531C39.4902 11.0489 41.2878 10.8422 41.8562 12.0493L68.7548 69.2833C68.8738 69.5383 68.9361 69.8162 68.9374 70.0976C68.9388 70.3791 68.8792 70.6575 68.7628 70.9137C68.6464 71.1699 68.4759 71.3977 68.2631 71.5815C68.0503 71.7652 67.8003 71.9006 67.5302 71.9781L67.5323 71.9784Z" fill="black"/>
</g>
<defs>
<clipPath id="clip0_469_2">
<rect width="75" height="91" fill="white"/>
</clipPath>
</defs>
</svg>
