<svg width="75" height="75" viewBox="0 0 75 75" fill="none" xmlns="http://www.w3.org/2000/svg">
<g clip-path="url(#clip0_510_2)">
<path d="M61.6651 24.2841C60.887 23.9834 60.0808 23.6989 59.2507 23.4298C59.3872 22.8046 59.5124 22.1875 59.6237 21.5809C61.4513 11.62 60.2564 3.59548 56.176 0.953451C52.2634 -1.5799 45.8646 1.06153 39.4022 7.37624C38.7808 7.98346 38.1576 8.62636 37.5347 9.30013C37.1197 8.85434 36.7053 8.42355 36.292 8.01149C29.5192 1.25938 22.7305 -1.58605 18.6541 1.06362C14.7452 3.60432 13.5877 11.1482 15.2328 20.5882C15.3916 21.5 15.5773 22.4311 15.7873 23.3778C14.8265 23.6841 13.899 24.0105 13.0115 24.3578C5.07109 27.4662 0 32.3377 0 37.3908C0 42.6096 5.44382 47.8442 13.7144 51.0182C14.367 51.2687 15.0443 51.5055 15.7422 51.7304C15.5157 52.7543 15.3186 53.7577 15.1532 54.7363C13.5846 64.0125 14.8096 71.3781 18.708 73.9028C22.7347 76.51 29.4927 73.8301 36.0733 67.3715C36.5934 66.8609 37.1154 66.3195 37.6383 65.752C38.3161 66.4848 38.9928 67.1784 39.6659 67.8289C46.0399 73.9876 52.3353 76.4745 56.2302 73.9428C60.2529 71.328 61.5603 63.4156 59.8629 53.7888C59.7333 53.0536 59.5825 52.3025 59.4131 51.538C59.8876 51.3805 60.3536 51.2179 60.8079 51.0488C69.4059 47.8502 75 42.6793 75 37.3908C75 32.3194 69.7654 27.4151 61.6651 24.2841ZM59.8002 47.6341C59.3901 47.7865 58.9693 47.9339 58.5405 48.0767C57.5913 44.7027 56.3103 41.115 54.7426 37.4083C56.2386 33.7899 57.4701 30.2481 58.3927 26.896C59.1599 27.1453 59.9046 27.4082 60.6222 27.6856C67.5625 30.3683 71.796 34.3346 71.796 37.3908C71.796 40.6462 67.224 44.8721 59.8002 47.6341ZM56.7199 54.4875C57.4704 58.7443 57.5776 62.593 57.0804 65.6017C56.6337 68.3051 55.7354 70.1076 54.6247 70.8295C52.2611 72.3656 47.2066 70.3689 41.7554 65.1019C41.1305 64.4981 40.5011 63.8535 39.8696 63.1711C41.9829 60.576 44.095 57.5591 46.1563 54.2085C49.782 53.8473 53.2075 53.2567 56.3139 52.4504C56.4669 53.1434 56.6028 53.823 56.7199 54.4875ZM25.5692 70.564C23.2599 71.4797 21.4207 71.506 20.3089 70.7862C17.9432 69.2541 16.9597 63.3402 18.3012 55.4072C18.4549 54.4987 18.6378 53.5655 18.8486 52.6116C21.9209 53.3744 25.3213 53.9233 28.9557 54.2541C31.0309 57.5327 33.204 60.5464 35.3939 63.1851C34.9155 63.7037 34.4389 64.1975 33.9649 64.6627C31.0551 67.5186 28.1391 69.5449 25.5692 70.564ZM14.7506 47.6141C11.0935 46.2107 8.07335 44.3866 6.00318 42.3962C4.14301 40.6075 3.20384 38.8317 3.20384 37.3908C3.20384 34.3244 7.27543 30.4132 14.0661 27.7549C14.8901 27.4323 15.7526 27.1283 16.6477 26.8428C17.5862 30.2705 18.8174 33.8543 20.3031 37.4783C18.7981 41.1561 17.5495 44.797 16.6018 48.265C15.9637 48.059 15.3454 47.8423 14.7506 47.6141ZM18.3771 19.8973C16.9676 11.8093 17.9037 5.70808 20.2593 4.17706C22.7684 2.54607 28.3167 4.87152 34.1645 10.7016C34.5383 11.0743 34.9136 11.4643 35.2899 11.8678C33.1108 14.495 30.9576 17.486 28.9008 20.7453C25.3735 21.1123 21.997 21.702 18.8926 22.4917C18.6975 21.6101 18.5246 20.7441 18.3771 19.8973ZM50.7287 28.8668C49.9866 27.4275 49.2247 26.0223 48.448 24.6554C50.841 24.995 53.1337 25.4459 55.2867 25.9977C54.6403 28.3237 53.8347 30.7557 52.8863 33.2489C52.206 31.7987 51.4864 30.3365 50.7287 28.8668ZM37.5358 14.4388C39.0136 16.2365 40.4936 18.2435 41.9493 20.4212C40.4824 20.3434 38.9973 20.3029 37.5 20.3029C36.0168 20.3029 34.5427 20.3425 33.0849 20.4189C34.5421 18.2615 36.0348 16.2571 37.5358 14.4388ZM24.2584 28.8917C23.517 30.335 22.8108 31.7893 22.1412 33.2462C21.2082 30.7617 20.41 28.3186 19.758 25.9596C21.8978 25.4219 24.1797 24.9823 26.5575 24.6491C25.7698 26.0286 25.0017 27.4444 24.2584 28.8917ZM26.626 50.3891C24.1693 50.0814 21.8531 49.6644 19.7138 49.1415C20.3762 46.7404 21.192 44.2451 22.1448 41.7071C22.8162 43.163 23.5252 44.6179 24.2711 46.0644C25.0308 47.538 25.818 48.9815 26.626 50.3891ZM37.6244 60.5964C36.1059 58.7568 34.5912 56.7218 33.1119 54.5329C34.5479 54.5962 36.012 54.6286 37.5 54.6286C39.0287 54.6286 40.5399 54.5899 42.0273 54.5155C40.5669 56.7439 39.0922 58.782 37.6244 60.5964ZM52.9169 41.5778C53.9193 44.1432 54.7644 46.6254 55.4353 48.9857C53.2608 49.5427 50.9129 49.9913 48.4392 50.3247C49.2177 48.9393 49.9863 47.51 50.7415 46.0396C51.5055 44.5521 52.2309 43.0623 52.9169 41.5778ZM47.9662 44.2424C46.7938 46.5249 45.5902 48.7037 44.3683 50.7604C42.1427 50.9391 39.8434 51.0311 37.5 51.0311C35.166 51.0311 32.8958 50.9497 30.7096 50.7904C29.4384 48.7067 28.2086 46.5214 27.0437 44.2621C25.8819 42.0089 24.8128 39.7366 23.8439 37.4771C24.8125 35.2124 25.879 32.9376 27.0342 30.6884L27.0339 30.6889C28.1922 28.4337 29.4112 26.2591 30.6706 24.1885C32.9011 23.9991 35.1883 23.9004 37.4999 23.9004C39.8218 23.9004 42.1121 23.9999 44.342 24.1909C45.5822 26.2463 46.7929 28.414 47.9556 30.6694C49.1316 32.9502 50.2119 35.2098 51.1889 37.426C50.2148 39.6803 49.137 41.9627 47.9662 44.2424ZM54.5756 4.07004C57.0871 5.69624 58.0638 12.2547 56.4858 20.8548C56.3852 21.4036 56.2718 21.9625 56.1487 22.529C53.0371 21.7229 49.6583 21.123 46.1207 20.7503C44.0599 17.4552 41.9243 14.4596 39.7807 11.8662C40.357 11.2436 40.9325 10.6501 41.5056 10.0899C47.0426 4.67951 52.2177 2.54337 54.5756 4.07004ZM37.5 29.8711C41.1987 29.8711 44.1972 33.2377 44.1972 37.3908C44.1972 41.5437 41.1987 44.9105 37.5 44.9105C33.8013 44.9105 30.8028 41.5437 30.8028 37.3908C30.8028 33.2377 33.8013 29.8711 37.5 29.8711Z" fill="#00D8FF"/>
</g>
<defs>
<clipPath id="clip0_510_2">
<rect width="75" height="75" fill="white"/>
</clipPath>
</defs>
</svg>
