<svg width="75" height="75" viewBox="0 0 75 75" fill="none" xmlns="http://www.w3.org/2000/svg">
<path d="M70.3069 26.6152H4.6916C2.7542 26.6152 1.18359 28.1858 1.18359 30.1234V43.6435C1.18359 45.581 2.7542 47.1516 4.6916 47.1516H70.3071C72.2445 47.1516 73.8154 45.581 73.8154 43.6435V30.1232C73.8154 28.1858 72.2443 26.6152 70.3069 26.6152Z" fill="#8AACAD"/>
<path d="M15.1419 42.4605C18.2228 42.4605 20.7203 39.963 20.7203 36.8821C20.7203 33.8013 18.2228 31.3037 15.1419 31.3037C12.061 31.3037 9.56348 33.8013 9.56348 36.8821C9.56348 39.963 12.061 42.4605 15.1419 42.4605Z" fill="#8AACAD"/>
<path d="M70.3069 6.0791H4.6916C2.7542 6.0791 1.18359 7.64971 1.18359 9.58726V23.1073C1.18359 25.0447 2.7542 26.6155 4.6916 26.6155H70.3071C72.2445 26.6155 73.8154 25.0449 73.8154 23.1073V9.58726C73.8154 7.64971 72.2443 6.0791 70.3069 6.0791Z" fill="#547475"/>
<path d="M29.1078 67.6882H70.3069C72.2443 67.6882 73.8152 66.1176 73.8152 64.1801V50.66C73.8152 48.7225 72.2443 47.1519 70.3069 47.1519H4.6916C2.7542 47.1519 1.18359 48.7225 1.18359 50.66V64.1801C1.18359 66.1176 2.7542 67.6882 4.6916 67.6882H25.2398" fill="#547475"/>
<path d="M15.1419 21.9254C18.2228 21.9254 20.7203 19.4278 20.7203 16.347C20.7203 13.2661 18.2228 10.7686 15.1419 10.7686C12.061 10.7686 9.56348 13.2661 9.56348 16.347C9.56348 19.4278 12.061 21.9254 15.1419 21.9254Z" fill="#8AACAD"/>
<path d="M15.1419 62.9991C18.2228 62.9991 20.7203 60.5016 20.7203 57.4207C20.7203 54.3398 18.2228 51.8423 15.1419 51.8423C12.061 51.8423 9.56348 54.3398 9.56348 57.4207C9.56348 60.5016 12.061 62.9991 15.1419 62.9991Z" fill="#8AACAD"/>
<path d="M15.1443 18.5045C16.3362 18.5045 17.3023 17.5383 17.3023 16.3465C17.3023 15.1546 16.3362 14.1885 15.1443 14.1885C13.9525 14.1885 12.9863 15.1546 12.9863 16.3465C12.9863 17.5383 13.9525 18.5045 15.1443 18.5045Z" fill="#53CAF9"/>
<path d="M15.1443 39.0411C16.3362 39.0411 17.3023 38.0749 17.3023 36.8831C17.3023 35.6913 16.3362 34.7251 15.1443 34.7251C13.9525 34.7251 12.9863 35.6913 12.9863 36.8831C12.9863 38.0749 13.9525 39.0411 15.1443 39.0411Z" fill="#53CAF9"/>
<path d="M15.1443 59.5782C16.3362 59.5782 17.3023 58.612 17.3023 57.4202C17.3023 56.2284 16.3362 55.2622 15.1443 55.2622C13.9525 55.2622 12.9863 56.2284 12.9863 57.4202C12.9863 58.612 13.9525 59.5782 15.1443 59.5782Z" fill="#53CAF9"/>
<path d="M48.0555 1.18408H16.8164L10.8164 4.44731V6.07886H64.3427V4.44731L58.3427 1.18408H52.0818" fill="#384949"/>
<g opacity="0.2">
<path d="M21.8934 1.18408H16.8164L10.8164 4.44731V6.07886H15.3954V5.23687L21.3954 1.97363H21.8934V1.18408Z" fill="#231F20"/>
</g>
<path d="M8.07031 67.6881V71.9217C8.07031 72.968 8.91875 73.8165 9.96509 73.8165H17.3337C18.3803 73.8165 19.2285 72.968 19.2285 71.9217V67.688L8.07031 67.6881Z" fill="#384949"/>
<path d="M55.9287 67.6881V71.9217C55.9287 72.968 56.7767 73.8165 57.8235 73.8165H65.1921C66.2384 73.8165 67.0869 72.968 67.0869 71.9217V67.688L55.9287 67.6881Z" fill="#384949"/>
<g opacity="0.2">
<path d="M11.8073 71.9207V67.687H8.07031V71.9207C8.07031 72.967 8.91875 73.8155 9.96509 73.8155H13.7021C12.6554 73.8155 11.8073 72.967 11.8073 71.9207Z" fill="#231F20"/>
</g>
<g opacity="0.2">
<path d="M59.6654 71.9207V67.687H55.9287V71.9207C55.9287 72.967 56.7767 73.8155 57.8235 73.8155H61.5602C60.5137 73.8155 59.6654 72.967 59.6654 71.9207Z" fill="#231F20"/>
</g>
<path d="M75 23.1072V9.58711C75 6.9999 72.895 4.89477 70.3075 4.89477H65.5263V4.44741C65.5263 4.01353 65.289 3.61436 64.9078 3.40723L58.9078 0.143994C58.7341 0.0493652 58.5398 0 58.3421 0H52.0812C51.427 0 50.897 0.530273 50.897 1.18418C50.897 1.83809 51.427 2.36836 52.0812 2.36836H58.0409L62.6861 4.89463H12.4718L17.117 2.36836H48.0549C48.7091 2.36836 49.2391 1.83809 49.2391 1.18418C49.2391 0.530273 48.709 0 48.0548 0H16.8158C16.6181 0 16.4238 0.0493652 16.2501 0.143848L10.2501 3.40708C9.86895 3.61436 9.63164 4.01353 9.63164 4.44741V4.89477H4.69219C2.10483 4.89477 0 6.99976 0 9.58711V23.1072C0 24.5016 0.612012 25.755 1.58071 26.6153C0.612012 27.4752 0 28.7288 0 30.1232V43.6433C0 45.0376 0.612012 46.2911 1.58071 47.1514C0.612012 48.0116 0 49.265 0 50.6594V64.1795C0 66.7667 2.10483 68.8718 4.69219 68.8718H6.88623V71.921C6.88623 73.6188 8.26743 75 9.96519 75H17.3338C19.0315 75 20.4127 73.6188 20.4127 71.921V68.8717H25.2403C25.8945 68.8717 26.4245 68.3414 26.4245 67.6875C26.4245 67.0334 25.8945 66.5033 25.2403 66.5033H19.2286H8.07041H4.69219C3.41089 66.5033 2.36851 65.4608 2.36851 64.1795V50.6594C2.36851 49.3781 3.41089 48.3356 4.69219 48.3356H70.3075C71.589 48.3356 72.6316 49.3781 72.6316 50.6594V64.1795C72.6316 65.4608 71.5891 66.5033 70.3075 66.5033H67.0871H55.9289H29.1085C28.4543 66.5033 27.9243 67.0336 27.9243 67.6875C27.9243 68.3416 28.4543 68.8717 29.1085 68.8717H54.7447V71.921C54.7447 73.6188 56.1259 75 57.8237 75H65.1923C66.89 75 68.2712 73.6188 68.2712 71.921V68.8717H70.3075C72.8949 68.8717 75 66.7667 75 64.1793V50.6593C75 49.2649 74.388 48.0114 73.4191 47.1511C74.3878 46.291 75 45.0374 75 43.643V30.123C75 28.7287 74.388 27.4752 73.4191 26.6149C74.388 25.755 75 24.5014 75 23.1072ZM18.0444 68.8718V71.921C18.0444 72.3127 17.7256 72.6316 17.3338 72.6316H9.96519C9.57349 72.6316 9.25459 72.3129 9.25459 71.921V68.8717L18.0444 68.8718ZM65.9029 71.921C65.9029 72.3127 65.5841 72.6316 65.1923 72.6316H57.8237C57.432 72.6316 57.1131 72.3129 57.1131 71.921V68.8717H65.9027L65.9029 71.921ZM72.6316 30.1232V43.6433C72.6316 44.9246 71.5891 45.9671 70.3075 45.9671H4.69219C3.41089 45.9671 2.36851 44.9246 2.36851 43.6433V30.1232C2.36851 28.8419 3.41089 27.7994 4.69219 27.7994H70.3075C71.589 27.7994 72.6316 28.8419 72.6316 30.1232ZM4.69219 25.431C3.41089 25.431 2.36851 24.3885 2.36851 23.1072V9.58711C2.36851 8.30581 3.41089 7.26328 4.69219 7.26328H10.8158H64.3421H70.3075C71.589 7.26328 72.6316 8.30581 72.6316 9.58711V23.1072C72.6316 24.3885 71.5891 25.431 70.3075 25.431H4.69219Z" fill="#231F20"/>
<path d="M15.1428 13.0044C13.3 13.0044 11.8008 14.5038 11.8008 16.3466C11.8008 18.1894 13.3 19.6888 15.1428 19.6888C16.9857 19.6888 18.4852 18.1894 18.4852 16.3466C18.4852 14.5038 16.9859 13.0044 15.1428 13.0044ZM15.1428 17.3203C14.606 17.3203 14.1693 16.8833 14.1693 16.3466C14.1693 15.8099 14.606 15.3729 15.1428 15.3729C15.6798 15.3729 16.1167 15.8099 16.1167 16.3466C16.1167 16.8833 15.68 17.3203 15.1428 17.3203Z" fill="#231F20"/>
<path d="M15.1428 40.2254C16.9857 40.2254 18.4852 38.726 18.4852 36.8832C18.4852 35.0404 16.9857 33.541 15.1428 33.541C13.3 33.541 11.8008 35.0404 11.8008 36.8832C11.8008 38.726 13.3 40.2254 15.1428 40.2254ZM15.1428 35.9094C15.6798 35.9094 16.1167 36.3463 16.1167 36.8831C16.1167 37.4199 15.6797 37.8567 15.1428 37.8567C14.606 37.8567 14.1693 37.4198 14.1693 36.8831C14.1693 36.3463 14.6061 35.9094 15.1428 35.9094Z" fill="#231F20"/>
<path d="M15.1428 54.0771C13.3 54.0771 11.8008 55.5766 11.8008 57.4193C11.8008 59.2621 13.3 60.7615 15.1428 60.7615C16.9857 60.7615 18.4852 59.2621 18.4852 57.4193C18.4852 55.5766 16.9859 54.0771 15.1428 54.0771ZM15.1428 58.393C14.606 58.393 14.1693 57.9561 14.1693 57.4193C14.1693 56.8826 14.606 56.4457 15.1428 56.4457C15.6798 56.4457 16.1167 56.8826 16.1167 57.4193C16.1167 57.9561 15.68 58.393 15.1428 58.393Z" fill="#231F20"/>
<path d="M66.929 11.0557H42.8951C42.2409 11.0557 41.7109 11.5859 41.7109 12.2398C41.7109 12.8937 42.2409 13.424 42.8951 13.424H66.9291C67.5833 13.424 68.1133 12.8937 68.1133 12.2398C68.1133 11.5859 67.583 11.0557 66.929 11.0557Z" fill="#231F20"/>
<path d="M66.929 15.1631H42.8951C42.2409 15.1631 41.7109 15.6934 41.7109 16.3473C41.7109 17.0012 42.2409 17.5314 42.8951 17.5314H66.9291C67.5833 17.5314 68.1133 17.0012 68.1133 16.3473C68.1133 15.6934 67.583 15.1631 66.929 15.1631Z" fill="#231F20"/>
<path d="M66.929 19.27H42.8951C42.2409 19.27 41.7109 19.8003 41.7109 20.4542C41.7109 21.1081 42.2409 21.6384 42.8951 21.6384H66.9291C67.5833 21.6384 68.1133 21.1081 68.1133 20.4542C68.1133 19.8003 67.583 19.27 66.929 19.27Z" fill="#231F20"/>
<path d="M42.8951 33.9602H66.9291C67.5833 33.9602 68.1133 33.4299 68.1133 32.776C68.1133 32.1219 67.5833 31.5918 66.9291 31.5918H42.8951C42.2409 31.5918 41.7109 32.1221 41.7109 32.776C41.7109 33.4299 42.2409 33.9602 42.8951 33.9602Z" fill="#231F20"/>
<path d="M42.8951 38.0676H66.9291C67.5833 38.0676 68.1133 37.5373 68.1133 36.8834C68.1133 36.2293 67.5833 35.6992 66.9291 35.6992H42.8951C42.2409 35.6992 41.7109 36.2295 41.7109 36.8834C41.7109 37.5373 42.2409 38.0676 42.8951 38.0676Z" fill="#231F20"/>
<path d="M42.8951 42.1745H66.9291C67.5833 42.1745 68.1133 41.6442 68.1133 40.9903C68.1133 40.3364 67.5833 39.8062 66.9291 39.8062H42.8951C42.2409 39.8062 41.7109 40.3364 41.7109 40.9903C41.7109 41.6442 42.2409 42.1745 42.8951 42.1745Z" fill="#231F20"/>
<path d="M42.8951 54.4963H66.9291C67.5833 54.4963 68.1133 53.966 68.1133 53.3121C68.1133 52.6581 67.5833 52.1279 66.9291 52.1279H42.8951C42.2409 52.1279 41.7109 52.6582 41.7109 53.3121C41.7109 53.966 42.2409 54.4963 42.8951 54.4963Z" fill="#231F20"/>
<path d="M42.8951 58.6032H66.9291C67.5833 58.6032 68.1133 58.0729 68.1133 57.419C68.1133 56.7651 67.5833 56.2349 66.9291 56.2349H42.8951C42.2409 56.2349 41.7109 56.7651 41.7109 57.419C41.7109 58.0729 42.2409 58.6032 42.8951 58.6032Z" fill="#231F20"/>
<path d="M42.8951 62.7106H66.9291C67.5833 62.7106 68.1133 62.1804 68.1133 61.5265C68.1133 60.8726 67.5833 60.3423 66.9291 60.3423H42.8951C42.2409 60.3423 41.7109 60.8726 41.7109 61.5265C41.7109 62.1804 42.2409 62.7106 42.8951 62.7106Z" fill="#231F20"/>
<path d="M23.2667 15.1624H21.8003C21.2385 11.9961 18.4682 9.5835 15.143 9.5835C11.8178 9.5835 9.04751 11.9961 8.48574 15.1624H7.01914C6.36494 15.1624 5.83496 15.6926 5.83496 16.3465C5.83496 17.0004 6.36494 17.5307 7.01914 17.5307H8.4856C9.04736 20.697 11.8178 23.1096 15.1429 23.1096C18.4681 23.1096 21.2384 20.6968 21.8001 17.5307H23.2666C23.9208 17.5307 24.4508 17.0004 24.4508 16.3465C24.4508 15.6926 23.9209 15.1624 23.2667 15.1624ZM15.1429 20.7415C12.7194 20.7415 10.748 18.77 10.748 16.3468C10.748 13.9237 12.7196 11.9521 15.1429 11.9521C17.5662 11.9521 19.5377 13.9237 19.5377 16.3468C19.5377 18.77 17.5663 20.7415 15.1429 20.7415Z" fill="#231F20"/>
<path d="M21.8003 56.2351C21.2385 53.0689 18.4682 50.6562 15.143 50.6562C11.8178 50.6562 9.04751 53.0689 8.48574 56.2351H7.01914C6.36494 56.2351 5.83496 56.7654 5.83496 57.4193C5.83496 58.0732 6.36494 58.6035 7.01914 58.6035H8.4856C9.04736 61.7697 11.8178 64.1823 15.1429 64.1823C18.4681 64.1823 21.2384 61.7696 21.8001 58.6035H23.2666C23.9208 58.6035 24.4508 58.0732 24.4508 57.4193C24.4508 56.7654 23.9208 56.2351 23.2666 56.2351H21.8003ZM15.1429 61.8141C12.7194 61.8141 10.748 59.8426 10.748 57.4194C10.748 54.9963 12.7196 53.0248 15.1429 53.0248C17.5662 53.0248 19.5377 54.9963 19.5377 57.4194C19.5378 59.8426 17.5663 61.8141 15.1429 61.8141Z" fill="#231F20"/>
<path d="M7.01914 38.0668H8.4856C9.04736 41.2331 11.8178 43.6457 15.1429 43.6457C18.4681 43.6457 21.2384 41.233 21.8001 38.0668H23.2666C23.9208 38.0668 24.4508 37.5366 24.4508 36.8827C24.4508 36.2286 23.9208 35.6985 23.2666 35.6985H21.8001C21.2384 32.5322 18.4681 30.1196 15.1429 30.1196C11.8177 30.1196 9.04736 32.5322 8.4856 35.6985H7.01914C6.36494 35.6985 5.83496 36.2288 5.83496 36.8827C5.83496 37.5366 6.36509 38.0668 7.01914 38.0668ZM15.1429 32.4878C17.5663 32.4878 19.5377 34.4594 19.5377 36.8825C19.5377 39.3057 17.5662 41.2772 15.1429 41.2772C12.7196 41.2772 10.748 39.3058 10.748 36.8827C10.748 34.4595 12.7197 32.4878 15.1429 32.4878Z" fill="#231F20"/>
<g opacity="0.2">
<path d="M4.92627 43.6435V30.1234C4.92627 28.186 6.49717 26.6152 8.43457 26.6152H4.6916C2.7542 26.6152 1.18359 28.1858 1.18359 30.1234V43.6435C1.18359 45.581 2.7542 47.1516 4.6916 47.1516H8.43442C6.49717 47.1516 4.92627 45.5809 4.92627 43.6435Z" fill="#231F20"/>
</g>
<g opacity="0.2">
<path d="M4.92627 23.1073V9.58726C4.92627 7.64971 6.49717 6.0791 8.43457 6.0791H4.6916C2.7542 6.0791 1.18359 7.64971 1.18359 9.58726V23.1073C1.18359 25.0447 2.7542 26.6155 4.6916 26.6155H8.43442C6.49717 26.6155 4.92627 25.0446 4.92627 23.1073Z" fill="#231F20"/>
</g>
<g opacity="0.2">
<path d="M4.92627 64.1801V50.66C4.92627 48.7225 6.49717 47.1519 8.43457 47.1519H4.6916C2.7542 47.1519 1.18359 48.7225 1.18359 50.66V64.1801C1.18359 66.1176 2.7542 67.6882 4.6916 67.6882H8.43442C6.49717 67.6882 4.92627 66.1175 4.92627 64.1801Z" fill="#231F20"/>
</g>
</svg>
