<svg width="75" height="75" viewBox="0 0 75 75" fill="none" xmlns="http://www.w3.org/2000/svg">
<g clip-path="url(#clip0_471_10)">
<path d="M37.5 73.2113C17.8081 73.2113 1.78711 57.1918 1.78711 37.4996C1.78711 17.8074 17.8084 1.7876 37.5003 1.7876C57.1919 1.7876 73.2129 17.8086 73.2129 37.5005C73.2129 57.1921 57.1919 73.2113 37.5 73.2113Z" fill="#85EA2D"/>
<path d="M37.4997 3.5748C56.2362 3.5748 71.4246 18.7629 71.4246 37.4997C71.4246 56.2356 56.2362 71.4246 37.4997 71.4246C18.7638 71.4246 3.5748 56.2356 3.5748 37.4997C3.5748 18.7638 18.7638 3.5748 37.4997 3.5748ZM37.4997 0C16.822 0 0 16.8223 0 37.4997C0 58.1772 16.8223 74.9991 37.4997 74.9991C58.1772 74.9991 75 58.1769 75 37.5C75 16.822 58.1772 0 37.4997 0Z" fill="#173647"/>
<path d="M23.6125 25.3765C23.4971 26.6597 23.6553 27.9866 23.5697 29.2841C23.4687 30.5823 23.3099 31.8655 23.0503 33.149C22.6899 34.98 21.5503 36.3646 19.9794 37.5183C23.0368 39.5085 23.3825 42.5937 23.5841 45.7232C23.6852 47.4107 23.6418 49.112 23.8149 50.7845C23.9447 52.0821 24.4492 52.414 25.791 52.4568C26.3389 52.4709 26.9002 52.4568 27.5359 52.4568V56.4655C23.5706 57.1431 20.2973 56.0187 19.489 52.6592C19.2291 51.4335 19.056 50.1787 18.9988 48.9098C18.9118 47.5686 19.056 46.2277 18.9555 44.8868C18.6669 41.2091 18.1908 39.9693 14.6729 39.7962V35.2253C14.925 35.168 15.18 35.1247 15.4369 35.0955C17.3693 34.9944 18.1908 34.4029 18.6092 32.4998C18.8113 31.4331 18.9268 30.3514 18.9695 29.2554C19.1143 27.1648 19.0565 25.0308 19.4163 22.9546C19.9208 19.9695 21.7674 18.5272 24.8392 18.3544C25.704 18.3107 26.5838 18.3544 27.5784 18.3544V22.4501C27.1604 22.4794 26.7997 22.5362 26.425 22.5362C23.9304 22.4492 23.8 23.3 23.6125 25.3765ZM28.4143 34.8646H28.3568C26.9146 34.7928 25.6747 35.9173 25.6021 37.3592C25.53 38.8159 26.6544 40.0563 28.0967 40.1278H28.2695C29.6978 40.2145 30.9227 39.1179 31.0094 37.6906V37.5467C31.0387 36.0904 29.8706 34.8939 28.4143 34.8646ZM37.4562 34.8646C36.0575 34.8213 34.8889 35.9173 34.8461 37.3015C34.8461 37.3885 34.8461 37.4606 34.861 37.5467C34.861 39.1185 35.9277 40.1284 37.5432 40.1284C39.1293 40.1284 40.1248 39.0901 40.1248 37.4606C40.1099 35.8885 39.0566 34.85 37.4562 34.8646ZM46.7146 34.8649C45.2438 34.8356 44.0175 36.0046 43.9747 37.4753C43.9738 37.8239 44.0418 38.1693 44.1748 38.4915C44.3078 38.8138 44.5031 39.1066 44.7497 39.3531C44.9962 39.5996 45.289 39.7949 45.6113 39.9279C45.9335 40.0608 46.2789 40.1288 46.6275 40.1278H46.6568C47.9834 40.3587 49.3246 39.0755 49.4113 37.5327C49.4825 36.1048 48.185 34.8649 46.7146 34.8649ZM59.4186 35.0808C57.7454 35.009 56.9087 34.4468 56.4912 32.8598C56.2322 31.8444 56.0728 30.806 56.0154 29.7596C55.8997 27.8272 55.9141 25.8804 55.7843 23.948C55.4816 19.3628 52.1655 17.7623 47.3485 18.5545V22.535C48.1123 22.535 48.7038 22.535 49.2953 22.5494C50.3192 22.5634 51.0979 22.9534 51.1984 24.0927C51.2995 25.1307 51.2995 26.1834 51.4006 27.2363C51.6033 29.3278 51.7179 31.4468 52.0785 33.5088C52.3964 35.2106 53.5639 36.4795 55.0199 37.5177C52.4682 39.2337 51.7182 41.6846 51.5881 44.4394C51.5163 46.3285 51.4727 48.2316 51.3725 50.1356C51.2854 51.8656 50.6805 52.4278 48.9355 52.4712C48.4451 52.4858 47.9693 52.5292 47.4212 52.5582V56.6392C48.4451 56.6392 49.3823 56.6966 50.3192 56.6392C53.2319 56.4658 54.9912 55.0528 55.5687 52.2262C55.8129 50.6702 55.9574 49.1001 56.0011 47.5256C56.1016 46.0833 56.0881 44.6269 56.2319 43.1996C56.4478 40.9642 57.4718 40.0414 59.7071 39.8978C59.9236 39.8685 60.1252 39.8257 60.3276 39.7537V35.1822C59.9521 35.1385 59.6919 35.0958 59.4186 35.0808Z" fill="#173647"/>
</g>
<defs>
<clipPath id="clip0_471_10">
<rect width="75" height="75" fill="white"/>
</clipPath>
</defs>
</svg>
