<svg width="100" height="60" viewBox="0 0 100 60" fill="none" xmlns="http://www.w3.org/2000/svg">
<g clip-path="url(#clip0_486_2)">
<path d="M50 0C36.6667 0 28.3333 6.64935 25 19.9481C30 13.2987 35.8333 10.8052 42.5 12.4675C46.3035 13.4158 49.0223 16.1684 52.0316 19.2148C56.934 24.1781 62.6074 29.9221 75 29.9221C88.3333 29.9221 96.6667 23.2727 100 9.97403C95 16.6234 89.1667 19.1169 82.5 17.4545C78.6965 16.5062 75.9777 13.7536 72.9684 10.7073C68.066 5.74403 62.3926 0 50 0ZM25 29.9221C11.6667 29.9221 3.33333 36.5714 0 49.8701C5 43.2208 10.8333 40.7273 17.5 42.3896C21.3035 43.3379 24.0223 46.0905 27.0316 49.1369C31.934 54.1001 37.6074 59.8442 50 59.8442C63.3333 59.8442 71.6667 53.1948 75 39.8961C70 46.5455 64.1667 49.039 57.5 47.3766C53.6965 46.4283 50.9777 43.6757 47.9684 40.6294C43.066 35.6661 37.3926 29.9221 25 29.9221Z" fill="url(#paint0_linear_486_2)"/>
</g>
<defs>
<linearGradient id="paint0_linear_486_2" x1="-2.778" y1="19.1501" x2="83.4761" y2="69.0122" gradientUnits="userSpaceOnUse">
<stop stop-color="#2298BD"/>
<stop offset="1" stop-color="#0ED7B5"/>
</linearGradient>
<clipPath id="clip0_486_2">
<rect width="100" height="60" fill="white"/>
</clipPath>
</defs>
</svg>
