<svg width="40" height="40" viewBox="0 0 40 40" fill="none" xmlns="http://www.w3.org/2000/svg">
<g clip-path="url(#clip0_111_54)">
<g clip-path="url(#clip1_111_54)">
<path d="M26.6667 26.6667C30.3486 26.6667 33.3333 23.6819 33.3333 20C33.3333 16.3181 30.3486 13.3333 26.6667 13.3333C22.9848 13.3333 20 16.3181 20 20C20 23.6819 22.9848 26.6667 26.6667 26.6667Z" fill="#19BCFE"/>
<path fill-rule="evenodd" clip-rule="evenodd" d="M13.3337 40C17.0156 40 20.0003 37.0152 20.0003 33.3333C20.0003 32.3282 20.0003 30.106 20.0003 26.6667C17.0054 26.6667 14.7832 26.6667 13.3337 26.6667C9.65176 26.6667 6.66699 29.6514 6.66699 33.3333C6.66699 37.0152 9.65176 40 13.3337 40Z" fill="#09CF83"/>
<path fill-rule="evenodd" clip-rule="evenodd" d="M13.3337 26.6667C14.561 26.6667 16.7832 26.6667 20.0003 26.6667V13.3333C16.7832 13.3333 14.561 13.3333 13.3337 13.3333C9.65176 13.3333 6.66699 16.3181 6.66699 20C6.66699 23.6819 9.65176 26.6667 13.3337 26.6667Z" fill="#A259FF"/>
<path fill-rule="evenodd" clip-rule="evenodd" d="M13.3337 13.3333C14.561 13.3333 16.7832 13.3333 20.0003 13.3333V0C16.7832 0 14.561 0 13.3337 0C9.65176 0 6.66699 2.98477 6.66699 6.66667C6.66699 10.3486 9.65176 13.3333 13.3337 13.3333Z" fill="#F24E1E"/>
<path fill-rule="evenodd" clip-rule="evenodd" d="M26.6667 13.3333H20V0H26.6667C30.3486 0 33.3333 2.98477 33.3333 6.66667C33.3333 10.3486 30.3486 13.3333 26.6667 13.3333Z" fill="#FF7262"/>
</g>
</g>
<defs>
<clipPath id="clip0_111_54">
<rect width="40" height="40" fill="white"/>
</clipPath>
<clipPath id="clip1_111_54">
<rect width="40" height="40" fill="white"/>
</clipPath>
</defs>
</svg>
