<svg width="75" height="75" viewBox="0 0 75 75" fill="none" xmlns="http://www.w3.org/2000/svg">
<g clip-path="url(#clip0_352_27)">
<path d="M13.1191 8.9085C14.1023 14.3319 15.1335 19.7483 16.1671 25.1624L16.6312 27.594C16.8925 28.9804 17.1796 30.3632 17.4609 31.7308L19.3664 41.1878C19.6488 41.1397 25.7331 41.1878 25.7331 41.1878L24.6585 25.4565C24.2566 19.5737 23.8535 13.6909 23.4363 7.81982C23.396 7.15568 23.2784 6.49851 23.0859 5.86162C22.446 3.80732 20.6121 2.47842 18.4207 2.47842C17.6132 2.47842 16.7999 2.65537 16.0066 3.00459C13.6722 4.02998 12.6187 6.18272 13.1191 8.91084M35.3085 41.7796L37.207 28.9335C37.766 25.3159 38.3203 21.7464 38.7867 18.1651C39.3644 13.896 39.8917 9.71943 40.0933 5.47022C40.1589 4.09443 39.7089 2.85107 38.7949 1.87256C37.746 0.752246 36.1581 0.0901367 34.4249 0.0561523C32.8312 0.0561523 31.5703 0.526074 30.6878 1.41436C29.7996 2.30967 29.3367 3.58818 29.346 5.11162C29.3964 12.8308 29.4902 20.5581 29.5828 28.2843L29.5265 41.3519L35.3085 41.7796Z" fill="#FFC600"/>
<path d="M8.23832 39.3912L12.8801 38.4467C17.3262 37.3463 22.0957 36.8096 27.4641 36.8096C33.1395 36.8096 38.5571 37.4236 42.6422 37.9592L47.502 38.599C46.9207 41.1904 46.3438 43.7811 45.7711 46.3709L45.4395 47.8568C45.2508 48.7006 45.2942 49.5467 45.3528 50.34C45.5239 52.8326 46.8973 53.3541 48.0141 53.3541C48.4207 53.3541 48.8743 53.2814 49.4039 53.1326C51.1172 52.6439 52.6993 51.8904 53.9836 50.9588C55.2235 50.0471 56.3766 49.0393 57.491 48.0666C58.3102 47.3482 59.1293 46.6299 59.9836 45.9525C63.1336 43.4529 66.6891 42.8834 70.5539 44.258C72.1512 44.8229 73.241 45.8588 73.5551 47.0939C73.8153 48.1322 73.4825 49.2303 72.6094 50.1889C71.6778 51.2107 70.2868 52.1811 68.5758 53.0014C67.4414 53.558 66.1418 53.8967 64.766 54.2611C64.3149 54.3783 63.8684 54.4955 63.4231 54.6244C56.7481 56.524 52.2891 59.8873 49.7965 64.9029C47.8629 68.7654 44.9332 71.7209 41.0907 73.6896C39.2883 74.6061 37.445 75.076 35.6192 75.076C33.8567 75.076 32.0391 74.6424 30.2157 73.7904C29.4071 73.4119 28.5305 73.3299 27.9375 73.3299C27.7852 73.3299 27.6328 73.3357 27.4957 73.3451C26.6262 73.4002 25.7567 73.433 24.8942 73.433C21.5895 73.433 18.9352 72.9373 16.5364 71.8686C12.5274 70.0791 9.91996 67.0615 8.32152 62.3881C6.29535 56.442 7.8141 53.4479 8.38715 47.9096C8.50433 46.8525 8.42816 40.0135 8.23129 39.3889" fill="#FFC600"/>
<path d="M9.34688 42.6829L15.0539 41.1864L13.418 31.7176C12.6422 27.6536 12.3856 24.268 11.4117 20.5262C11.2895 20.1272 11.1103 19.7479 10.8797 19.4001C9.93165 17.988 8.86173 17.1782 7.41212 17.1782H7.39102C5.63907 17.1782 4.50469 17.8626 3.59063 19.1001C2.57344 20.4676 2.46446 22.0485 3.22618 24.2587C3.22501 24.2587 8.19258 39.2798 9.34688 42.6829ZM45.3656 10.5173C44.93 11.2884 44.6221 12.125 44.4539 12.9946C43.6128 17.8238 42.8096 22.6595 42.0445 27.5012C41.7738 29.1923 39.4957 40.6134 39.4957 40.6134L47.2441 39.7743C47.9133 36.8188 49.3406 30.4356 50.0402 27.4801C50.6121 25.0848 51.2578 22.7458 51.8988 20.3786C52.3594 18.6841 52.8164 17.0071 53.25 15.3044C53.734 13.4083 53.4363 11.8005 52.3266 10.3649C50.475 7.95905 46.7672 8.04694 45.3656 10.5208" fill="#FFC600"/>
</g>
<defs>
<clipPath id="clip0_352_27">
<rect width="75" height="75" fill="white"/>
</clipPath>
</defs>
</svg>
