<svg width="75" height="75" viewBox="0 0 75 75" fill="none" xmlns="http://www.w3.org/2000/svg">
<path d="M53.5157 7.7627L53.4677 15.3564C53.531 20.7201 53.3259 25.4662 53.3692 31.7979C53.3259 25.4674 53.7817 20.7201 53.7243 15.3564L53.6423 7.7627C53.6188 5.6498 52.9239 3.73262 51.5727 2.28184C50.5075 1.15215 49.1657 0.415039 47.8005 0.415039H47.7841C49.1458 0.415039 50.4477 1.15332 51.5083 2.28184C52.8583 3.73145 53.4911 5.6498 53.5157 7.7627ZM44.2954 22.2646C44.6692 26.3229 44.9856 30.4396 45.3454 35.249C45.336 35.3896 45.2927 35.4459 45.6185 35.5162C47.4606 35.9369 49.0345 36.3682 50.9165 36.8088C49.0356 36.3682 47.7126 35.9369 45.8716 35.5162C45.5493 35.4459 45.4614 35.3896 45.472 35.249C45.111 30.4408 44.7278 26.3252 44.3528 22.2646C43.9017 17.392 43.4739 12.7959 43.0954 7.14512C43.0263 6.00605 43.3099 4.6666 43.8571 3.41973C43.3087 4.66543 43.0028 6.00605 43.0696 7.14512C43.4493 12.7912 43.8431 17.3908 44.2954 22.2646ZM59.7231 42.3283C59.7427 42.3471 59.7602 42.3658 59.7759 42.3846Z" fill="#FFC600"/>
<path d="M39.9143 38.2381C38.1682 38.0342 36.7197 39.1275 36.6178 40.5936C36.5158 41.9646 36.7572 43.8092 38.4752 44.8193C38.6955 44.9459 38.9182 45.0596 39.1467 45.1721L39.4666 45.3373C40.949 46.0568 44.8748 47.7701 48.6963 47.7701C49.6092 47.7701 50.4623 47.6682 51.2287 47.4689L51.9049 49.8619C51.7877 49.8959 49.0994 50.6939 45.3811 50.6939C44.1623 50.6939 42.9752 50.6014 41.8303 50.4338C37.8799 53.0951 35.8174 56.7549 36.1748 60.6502C36.2146 61.1107 36.067 61.5502 35.7588 61.8877C35.4061 62.2744 34.8588 62.4971 34.2564 62.4971C33.1771 62.4971 32.3369 61.8104 32.2643 60.8705C31.8611 56.5428 33.7127 52.215 37.3631 49.0053L37.0936 49.0393C36.0818 48.6221 35.1231 48.0863 34.2377 47.4432C33.7479 49.0416 32.7658 50.7525 30.6471 51.6221C28.5893 52.4916 26.44 52.0111 24.7877 50.9705C23.9135 53.7924 21.8615 55.5385 19.2143 55.5385C19.1404 55.5385 19.0607 55.5314 18.9869 55.5256C17.7611 55.4811 16.4885 55.0721 15.21 54.2893C16.233 58.3627 17.4213 61.4728 19.0104 64.3018C23.0463 71.5123 28.5389 74.1232 36.7057 72.785C36.9377 72.7498 37.1814 72.7275 37.424 72.7275C38.0451 72.7275 38.5748 72.8564 39.0025 73.1084C42.8826 75.4287 46.6525 74.9963 50.2643 71.8334C56.5971 66.3057 59.9604 59.2217 60.2533 50.7748C60.4232 45.8061 57.7068 42.3666 52.6068 41.0881C51.7338 40.8678 50.8584 40.6662 49.9877 40.4471C47.9322 39.9361 45.8814 39.4193 43.8154 38.94C42.667 38.6764 41.3111 38.3811 39.9201 38.2334M44.3533 22.2643C44.7283 26.3225 45.1115 30.4393 45.4725 35.2486C45.4619 35.3893 45.5486 35.4455 45.8721 35.5158C47.7119 35.9365 49.035 36.3678 50.917 36.8084L53.5174 37.392C53.5174 37.392 53.3873 33.3818 53.3709 31.7998C53.3275 25.4693 53.5326 20.7221 53.4693 15.3584L53.5174 7.76465C53.4928 5.65176 52.86 3.84473 51.51 2.39395C50.4506 1.27012 49.1428 0.644336 47.7857 0.639648C46.1217 0.643164 44.685 1.60527 43.9455 3.21191C43.9127 3.27988 43.8928 3.35137 43.8576 3.42051C43.3092 4.66621 43.0268 6.00684 43.0959 7.1459C43.4744 12.792 43.9021 17.3904 44.3533 22.2643ZM37.8635 21.2928C38.8045 25.2584 39.7561 29.2814 40.9514 33.9525C41.0064 34.0838 40.942 34.1646 40.6584 34.3334C39.0494 35.3201 37.9338 36.1521 36.2908 37.1705L34.0139 38.5533C34.0139 38.5533 32.8561 34.7119 32.3662 33.2072C30.3857 27.1943 28.6748 22.7623 27.0189 17.66L24.5475 10.4799C23.8947 8.47012 23.9182 6.55527 24.7326 4.74824C25.3783 3.34316 26.4131 2.33535 27.701 1.8959C29.2783 1.36855 30.9482 1.82207 32.1623 3.10762C32.215 3.16152 32.2561 3.22363 32.3111 3.27754C33.2287 4.28301 33.9248 5.46074 34.2248 6.56348C35.6697 12.035 36.7326 16.5314 37.8635 21.2928Z" fill="#FFC600"/>
<path d="M20.0861 34.359C20.9334 39.0078 22.7697 43.1867 25.5447 46.775C25.7275 47.0211 25.9818 47.2461 26.2736 47.4992C27.2896 48.3641 28.1381 48.602 29.099 48.2457C30.0143 47.9129 30.6213 47.3023 30.9764 45.2082C30.9655 44.9634 30.9585 44.7185 30.9553 44.4734C30.9377 43.673 30.9154 42.6781 30.708 41.75C30.3154 39.9605 29.8385 38.1945 29.3604 36.425C29.0193 35.1512 28.676 33.8773 28.3619 32.6C27.8908 30.6746 26.3322 29.3809 24.4865 29.3809C23.7354 29.3809 23.0029 29.5965 22.3139 30.016C21.0764 30.7742 19.683 32.1453 20.0861 34.359ZM10.7861 40.0543C10.8412 40.3977 10.8846 40.748 10.9279 41.0996C11.0334 41.9469 11.1307 42.7449 11.4412 43.3004C12.8135 45.725 14.4506 48.0113 16.1521 50.3434C16.4439 50.7383 17.0123 51.1449 17.835 51.5434C19.4275 52.3203 21.074 51.4566 21.2182 49.7914C21.3283 48.5293 20.8771 47.0832 20.5291 46.1047C20.0732 44.8098 19.4896 43.5676 18.8756 42.2527C18.6002 41.6703 18.3248 41.0867 18.0646 40.5008C17.9428 40.2289 17.8314 39.9488 17.7189 39.6699C17.508 39.1402 17.3041 38.6398 17.0463 38.2297C16.3865 37.1938 15.0342 36.6559 13.785 36.916C12.4701 37.2055 11.3627 38.3691 10.7908 40.0543" fill="#FFC600"/>
</svg>
