<svg width="75" height="75" viewBox="0 0 75 75" fill="none" xmlns="http://www.w3.org/2000/svg">
<path d="M59.109 25.6056C55.5535 24.961 52.1223 24.8556 48.9055 26.6778C47.6996 27.3622 40.7082 29.3099 41.041 30.3388C35.2988 33.6927 38.5285 37.1368 33.4133 42.0481C30.9512 44.4153 34.0684 48.7934 36.5281 46.4321C42.5504 40.6466 47.0984 34.472 55.407 31.929C56.3527 31.6407 56.8754 31.0302 57.1121 30.3388C57.2645 30.3634 57.3934 30.3704 57.5516 30.4009C58.9367 30.6692 59.9469 28.9981 60.4402 28.0138C59.8109 26.7786 59.7031 26.8583 59.1125 25.6056" fill="#FFC600"/>
<path d="M66.3159 61.6534C68.4054 56.844 68.9222 52.2081 67.8546 47.8604C66.0918 40.681 63.4397 33.7497 59.9597 27.2272L59.2624 27.3866C50.9655 29.2991 43.6554 33.88 36.2398 41.7948L32.8237 45.4417L35.1792 41.0331C37.6817 36.3395 41.3588 32.3752 45.8515 29.5276C50.3702 26.6647 55.1386 25.446 59.2214 26.0964L59.3327 26.114C56.0695 20.1793 52.1865 14.6072 47.7487 9.49091C46.0835 7.57138 43.7995 5.93427 41.5905 4.35107C40.8054 3.78622 40.0366 3.40771 39.2632 3.20263L40.939 4.67802L41.6069 5.08701L41.5003 5.20536C47.6726 10.7624 51.6194 16.071 53.573 21.4276C53.6341 21.5926 53.6544 21.7698 53.6322 21.9443C53.6099 22.1188 53.5458 22.2853 53.4452 22.4296C52.9519 23.1362 51.6722 23.0507 51.3663 22.2315C49.4351 16.9382 45.3581 11.6261 38.9011 6.00927L37.6554 5.26396C37.1666 4.96446 36.6818 4.65858 36.2011 4.34638L35.3655 3.81201C34.0062 2.94013 32.6034 2.03896 31.1222 1.36279C28.0788 -0.0282293 24.9546 -0.0504948 22.305 1.29365C22.1936 1.34979 22.0811 1.40371 21.9675 1.45536C33.2984 9.39482 40.5687 17.1128 44.1734 25.0218C44.3503 25.4108 44.3222 25.8362 44.0972 26.1913C43.5804 27.0011 42.1542 26.9987 41.7417 26.1093C36.9054 15.4921 26.0187 7.28896 18.187 2.01669C17.6963 1.97043 17.2098 1.88739 16.7316 1.76826C13.8511 1.02997 11.5097 1.85615 9.51514 4.33818C7.59093 6.7206 7.56046 8.43505 9.39561 10.2561C10.3237 11.1808 11.4698 12.0186 12.5773 12.8261C12.9476 13.0886 13.2276 13.296 13.5054 13.5022L13.6671 13.6229C14.6597 14.3659 15.7132 15.0796 16.7409 15.7768L17.014 15.962C19.4737 17.6401 22.0179 19.378 24.0569 21.4827C26.9866 24.4968 29.9398 27.3772 33.8925 29.4163C34.196 29.5698 34.5452 29.905 34.4913 30.614L34.4995 32.3284L32.9573 31.753C32.7112 31.664 32.4687 31.5714 32.2296 31.4753C31.714 31.2772 31.2991 31.1155 30.8644 30.9995C30.1343 30.8061 29.4042 30.5929 28.6776 30.3808L28.1503 30.2261C26.1323 29.6483 24.0487 29.0425 21.9558 28.7272C17.9702 28.1237 14.6163 29.5065 12.0839 32.8065C10.5089 34.8726 8.74991 37.0417 6.38038 39.8378C4.36007 42.2331 3.40616 44.537 3.46124 46.869C3.48702 48.0128 3.95225 48.9409 4.80304 49.5526C5.80968 50.2722 7.28272 50.4292 8.82022 49.978C10.0976 49.5936 11.5366 48.6327 12.5667 47.4761C13.4819 46.4542 14.1605 45.1909 14.8155 43.9675L14.9714 43.6768C15.1437 43.3558 15.3183 43.0265 15.4964 42.7077C17.28 39.5729 19.9249 38.4784 23.2601 39.4956C29.4112 41.3729 33.3089 45.171 34.5359 50.4772C34.8804 51.9608 34.6226 53.3706 33.7987 54.5577C32.7183 56.1022 30.7249 57.1054 28.3249 57.3058C25.1023 57.5683 22.3191 56.9893 19.7585 55.5151C18.3476 54.6948 16.4843 53.6729 14.5519 53.0249C13.6906 52.7451 12.7903 52.6039 11.8847 52.6065C11.2519 52.6065 10.6155 52.6733 9.99327 52.8069C8.08311 53.2159 6.34054 54.2261 5.08429 55.6464C4.23585 56.6108 3.87139 57.5589 4.03077 58.3944C4.22882 59.3987 5.12882 60.0339 5.84718 60.3913C6.86554 60.8987 8.08546 61.2808 9.37452 61.4987C15.6452 62.5476 20.8319 64.9499 24.787 68.6413C29.2566 72.8097 35.0491 74.8382 42.4941 74.8382C43.2698 74.839 44.062 74.8163 44.8706 74.7702C46.6093 74.6816 48.3382 74.4547 50.0409 74.0917C57.7741 72.4347 63.5491 68.0155 66.3077 61.6511" fill="#FFC600"/>
</svg>
