<svg width="50" height="50" viewBox="0 0 50 50" fill="none" xmlns="http://www.w3.org/2000/svg">
<g clip-path="url(#clip0_111_36)">
<path d="M42.0183 16.6753C42.277 17.1597 42.5016 17.6421 42.7183 18.1446C46.3017 27.3753 42.1642 37.8171 33.2343 42.0985L19.5142 48.0154C17.0238 49.0729 14.1551 47.9098 13.1035 45.4334C12.4774 43.0217 13.5734 40.4964 15.7582 39.3059L29.4784 33.389C34.1032 30.9477 35.8846 25.2135 33.443 20.5886C33.4189 20.5327 33.3809 20.4829 33.3569 20.4272" fill="#F75023"/>
<path d="M19.4169 48.0575C17.0162 49.0928 14.2195 47.9815 13.1842 45.5808C12.1488 43.1801 13.2602 40.3834 15.661 39.348C18.0616 38.3127 20.8583 39.4241 21.8937 41.8249C22.9289 44.2253 21.8176 47.0222 19.4169 48.0575Z" fill="#F75023"/>
<path d="M7.44301 31.8842C8.48062 34.3667 11.3213 35.5418 13.8039 34.5043L13.8318 34.4923C16.2023 33.3872 17.2338 30.5587 16.1287 28.1882L16.0866 28.0905C14.3969 23.1744 16.9814 17.8058 21.8992 16.0822L21.969 16.0521C26.4185 14.5472 31.2848 16.5039 33.4597 20.6644C34.3973 23.1072 37.1404 24.3244 39.5832 23.3869L39.653 23.3568C42.1113 22.2635 43.2346 19.3789 42.1415 16.9203L42.0091 16.6133C37.5853 7.54622 26.8506 3.53497 17.5587 7.47586L17.4889 7.50596C6.61603 12.1949 4.25104 24.5208 7.31472 31.6249L7.42911 31.8902L7.44301 31.8842Z" fill="#F19E87"/>
</g>
<defs>
<clipPath id="clip0_111_36">
<rect width="38" height="38" fill="white" transform="translate(34.8936) rotate(66.6716)"/>
</clipPath>
</defs>
</svg>
