<svg width="40" height="40" viewBox="0 0 40 40" fill="none" xmlns="http://www.w3.org/2000/svg">
<path d="M23.5524 0C23.2632 0 22.9947 0.0621818 22.7467 0.145273C23.2736 0.497818 23.5628 0.964546 23.7074 1.49345C23.7178 1.566 23.7384 1.61782 23.7487 1.69036C23.7591 1.75273 23.7695 1.81491 23.7695 1.87709C23.8107 2.78982 23.5318 2.90382 23.3355 3.44309C23.0359 4.138 23.1186 4.88455 23.4801 5.48618C23.5111 5.55873 23.5524 5.64164 23.6041 5.71436C23.2116 3.09055 25.3912 2.69636 25.7941 1.87709C25.825 1.16145 25.2362 0.684364 24.7714 0.352545C24.3272 0.0829089 23.9243 0 23.5524 0ZM26.8375 0.591091C26.796 0.829636 26.8271 0.767455 26.8169 0.891818C26.8065 0.974909 26.8065 1.07855 26.796 1.16145C26.7766 1.24571 26.7525 1.32887 26.7238 1.41055C26.7031 1.49345 26.6721 1.57636 26.6412 1.65927C26.5998 1.74236 26.5689 1.81491 26.5275 1.89782C26.4966 1.93927 26.4758 1.98073 26.445 2.02236L26.3829 2.11564C26.3312 2.18836 26.2796 2.26091 26.2279 2.32291C26.166 2.38527 26.1143 2.45782 26.042 2.50964V2.52018C25.98 2.572 25.9181 2.63418 25.8458 2.686C25.6289 2.852 25.381 2.97636 25.1537 3.132C25.0814 3.18382 25.0091 3.22527 24.947 3.28745C24.8747 3.33945 24.8128 3.39109 24.7508 3.45345C24.6785 3.51564 24.6268 3.57782 24.5649 3.65055C24.5132 3.71273 24.4512 3.78527 24.4099 3.85782C24.3582 3.93055 24.3066 4.00327 24.2653 4.07564C24.2239 4.15873 24.193 4.23127 24.1516 4.31418C24.1207 4.39727 24.0897 4.46982 24.0691 4.55273C24.038 4.64618 24.0174 4.72909 23.9968 4.812C23.9864 4.85345 23.9864 4.90545 23.976 4.94691C23.9657 4.98836 23.9657 5.02982 23.9553 5.07127C23.9553 5.15418 23.9451 5.24764 23.9451 5.33055C23.9451 5.39273 23.9451 5.45509 23.9553 5.51727C23.9553 5.60018 23.9657 5.68309 23.9864 5.77655C23.9968 5.85945 24.0174 5.94236 24.038 6.02545C24.0691 6.10836 24.0897 6.19127 24.1207 6.27436C24.1414 6.32618 24.1724 6.378 24.193 6.41945L21.8171 5.49655C21.4203 5.38321 21.0208 5.27948 20.6188 5.18545L19.9679 5.02982C19.3465 4.90547 18.719 4.81202 18.0879 4.74982C18.0672 4.74982 18.057 4.73945 18.0362 4.73945C17.4219 4.67734 16.8047 4.64615 16.1872 4.646C15.7326 4.646 15.2782 4.66673 14.834 4.698C14.204 4.73945 13.5737 4.82236 12.9435 4.92618C12.7885 4.94691 12.6337 4.978 12.4787 5.00909C12.1585 5.07127 11.8487 5.14382 11.5489 5.21636L11.0843 5.34091C10.9291 5.40309 10.7845 5.47582 10.6401 5.538L10.2991 5.69345C10.2784 5.70382 10.2578 5.70382 10.2474 5.71418C10.1441 5.76618 10.0511 5.80764 9.95822 5.85946C9.93333 5.86813 9.90911 5.87852 9.88574 5.89055C9.77237 5.94236 9.65863 6.00455 9.5657 6.05655C9.49322 6.08745 9.42092 6.12909 9.35904 6.16018C9.328 6.18091 9.28656 6.20164 9.26611 6.212C9.17319 6.264 9.08026 6.31564 8.99737 6.36764C8.90445 6.41939 8.82181 6.47121 8.74945 6.52309C8.67715 6.57509 8.60486 6.61655 8.54297 6.66836C8.53256 6.67873 8.52234 6.67873 8.51193 6.68909C8.45004 6.73055 8.37775 6.78236 8.31567 6.83436L8.29505 6.85509L8.14005 6.97945C8.1196 6.98982 8.09879 7.01055 8.07816 7.02091C8.02649 7.06236 7.97483 7.11436 7.92316 7.15582C7.91275 7.17655 7.89212 7.18673 7.8819 7.19727C7.81983 7.25945 7.75794 7.31127 7.69605 7.37364C7.68546 7.37364 7.68546 7.384 7.67523 7.39436C7.61316 7.44618 7.55127 7.50836 7.48939 7.57073C7.47898 7.58091 7.47898 7.59127 7.46857 7.59127C7.4169 7.64309 7.36542 7.69491 7.31376 7.75727C7.29313 7.778 7.26209 7.79873 7.24128 7.81945C7.1898 7.88164 7.12791 7.944 7.06583 8.00618C7.05543 8.02691 7.0348 8.03727 7.02439 8.058C6.94187 8.14091 6.86939 8.224 6.78687 8.30691L6.75584 8.338C6.59043 8.51436 6.41499 8.69073 6.22895 8.84618C6.0431 9.01218 5.84684 9.16764 5.65058 9.30255C5.45046 9.44338 5.24362 9.57486 5.03077 9.69655C4.82008 9.81233 4.60278 9.9162 4.37993 10.0076C4.16045 10.1015 3.93635 10.1846 3.70845 10.2567C3.27468 10.35 2.8305 10.5262 2.44839 10.5573C2.3655 10.5573 2.27257 10.578 2.19006 10.5885C2.09713 10.6093 2.01443 10.63 1.93173 10.6507L1.6838 10.744C1.6011 10.7751 1.51839 10.8167 1.43588 10.8582C1.3634 10.91 1.28088 10.9515 1.20858 11.0033C1.13494 11.0564 1.06588 11.1154 1.0021 11.1796C0.929622 11.2315 0.857326 11.304 0.795438 11.3662C0.733364 11.4389 0.671476 11.5011 0.61981 11.5736C0.568143 11.6567 0.506255 11.7293 0.464811 11.8122C0.413145 11.8849 0.361478 11.9678 0.32022 12.0507C0.278961 12.144 0.237516 12.2271 0.206665 12.3204C0.175628 12.4033 0.144591 12.4967 0.11374 12.59C0.0929249 12.6729 0.0722956 12.756 0.0620738 12.8389C0.0620738 12.8493 0.0516663 12.8596 0.0516663 12.87C0.0310369 12.9635 0.031037 13.0878 0.0206294 13.15C0.0102218 13.2227 0 13.2849 0 13.3575C0 13.3989 -4.56948e-08 13.4507 0.0104076 13.4924C0.0206293 13.5649 0.0308511 13.6271 0.0516663 13.6893C0.0722956 13.7516 0.0931107 13.8138 0.124148 13.876V13.8864C0.154999 13.9485 0.196258 14.0107 0.237516 14.0731C0.278961 14.1353 0.32022 14.1975 0.371886 14.2596C0.423552 14.3116 0.485626 14.3738 0.547514 14.4256C0.607864 14.4865 0.673534 14.542 0.743772 14.5916C0.991696 14.8093 1.05377 14.882 1.3738 15.0478C1.42566 15.0791 1.47714 15.0998 1.53921 15.1309C1.54962 15.1309 1.55984 15.1413 1.57025 15.1413C1.57025 15.162 1.57025 15.1724 1.58047 15.1931C1.59088 15.276 1.61151 15.3591 1.63213 15.442C1.65276 15.5353 1.6838 15.6184 1.71484 15.6909C1.74588 15.7531 1.7665 15.8153 1.79754 15.8776C1.80776 15.8984 1.81798 15.9191 1.82839 15.9295C1.86984 16.0124 1.9111 16.0849 1.95235 16.1576L2.10735 16.3755C2.15902 16.4376 2.22109 16.5102 2.28298 16.5724C2.34506 16.6347 2.40694 16.6865 2.47924 16.7487C2.47924 16.7487 2.48965 16.7591 2.49987 16.7591C2.56194 16.8109 2.62383 16.8629 2.68572 16.9044C2.7582 16.9562 2.8305 16.9976 2.9132 17.0391C2.98916 17.0832 3.06859 17.1214 3.15072 17.1533C3.2126 17.1844 3.2849 17.2051 3.35738 17.2258C3.3676 17.2362 3.37782 17.2362 3.39864 17.2465C3.4399 17.2569 3.49156 17.2673 3.53301 17.2776C3.50197 17.8376 3.49156 18.3665 3.57427 18.5533C3.66719 18.7607 4.12178 18.128 4.57637 17.402C4.5143 18.1176 4.47304 18.9576 4.57637 19.2065C4.68974 19.4658 5.30974 18.6569 5.84684 17.7651C13.1708 16.0642 19.8544 21.146 20.5569 28.3225C20.4225 27.2024 19.0487 26.5802 18.4185 26.7358C18.1087 27.5031 17.5818 28.4884 16.7347 29.1002C16.8072 28.4158 16.7761 27.7105 16.6315 27.0262C16.4042 27.9802 15.9601 28.8722 15.3505 29.6395C14.3692 29.7122 13.3879 29.2351 12.8712 28.5195C12.83 28.4884 12.8197 28.4262 12.7887 28.3847C12.7577 28.312 12.7266 28.2395 12.706 28.1669C12.6758 28.0972 12.655 28.024 12.6441 27.9491C12.6337 27.8765 12.6337 27.804 12.6337 27.7209V27.5655C12.6441 27.4927 12.6648 27.4202 12.6854 27.3476C12.7058 27.2751 12.7266 27.2024 12.7577 27.1298C12.7989 27.0573 12.83 26.9847 12.8816 26.912C13.0573 26.4142 13.0573 26.0098 12.737 25.7713C12.6751 25.7307 12.6094 25.696 12.5408 25.6676C12.4993 25.6571 12.4479 25.6364 12.4064 25.626C12.3754 25.6156 12.3548 25.6053 12.3239 25.5949C12.2514 25.5742 12.1791 25.5535 12.1068 25.5431C12.0364 25.5226 11.9634 25.5121 11.8899 25.512C11.8147 25.5 11.7388 25.4931 11.6626 25.4913C11.611 25.4913 11.5593 25.5016 11.5076 25.5016C11.4251 25.5016 11.3528 25.512 11.2805 25.5327C11.2081 25.5431 11.1358 25.5535 11.0635 25.5742C10.9912 25.5949 10.9189 25.6158 10.8466 25.6469C10.7743 25.678 10.7124 25.7091 10.6401 25.7402C10.578 25.7713 10.516 25.8127 10.4437 25.8438C8.0369 27.4202 9.47278 31.1122 11.1151 32.1804C10.4953 32.2945 9.86529 32.4293 9.68966 32.5642L9.66903 32.5849C10.1132 32.8545 10.578 33.0827 11.0637 33.2796C11.6169 33.4598 12.1749 33.6258 12.737 33.7775V33.7878C13.5923 33.9641 14.4679 34.0269 15.3402 33.9745C19.9164 33.6531 23.6661 30.1582 24.348 25.5535C24.3687 25.6469 24.3893 25.7298 24.4099 25.8231C24.441 26.0098 24.4822 26.2069 24.503 26.4038V26.4144C24.5237 26.5076 24.5339 26.6009 24.5443 26.684V26.7255C24.5547 26.8187 24.5649 26.9122 24.5649 26.9951C24.5753 27.1091 24.5855 27.2233 24.5855 27.3373V27.5033C24.5855 27.5551 24.596 27.6173 24.596 27.6691C24.596 27.7315 24.5855 27.7936 24.5855 27.8558V28.0011C24.5855 28.0736 24.5753 28.1358 24.5753 28.2085C24.5753 28.25 24.5753 28.2915 24.5649 28.3433C24.5649 28.4158 24.5545 28.4885 24.5545 28.5715C24.5441 28.6025 24.5441 28.6336 24.5441 28.6647C24.5339 28.7478 24.5235 28.8204 24.5132 28.9033C24.5132 28.9344 24.5132 28.9655 24.5028 28.9967C24.4924 29.1004 24.4718 29.1936 24.4616 29.2975V29.3182C24.441 29.4115 24.4201 29.5153 24.3995 29.6085V29.6396L24.3376 29.9196C24.3376 29.93 24.3272 29.9507 24.3272 29.9611C24.3079 30.0556 24.2837 30.1491 24.2549 30.2413V30.2724C24.2239 30.376 24.1928 30.4693 24.1722 30.5627C24.162 30.5731 24.162 30.5835 24.162 30.5835L24.0689 30.8945C24.0276 30.9982 23.9966 31.0916 23.9553 31.1953C23.9141 31.2989 23.883 31.4027 23.8418 31.496C23.8003 31.5998 23.7591 31.6931 23.7178 31.7967H23.7074C23.666 31.8902 23.6247 31.9938 23.573 32.0871C23.5645 32.112 23.5541 32.1363 23.542 32.1598C23.5318 32.1702 23.5318 32.1805 23.5214 32.1909C22.8499 33.5495 21.8584 34.742 20.6188 35.6755C20.5361 35.7273 20.4534 35.7895 20.3708 35.8518C20.3502 35.8724 20.3192 35.8829 20.2985 35.9036C20.2261 35.9555 20.1538 36.0073 20.0712 36.0591L20.1021 36.1215H20.1125L20.5465 36.0591H20.5567C20.8252 36.0176 21.094 35.9658 21.3625 35.914C21.4394 35.9016 21.5153 35.8843 21.5898 35.8622C21.6413 35.8516 21.6828 35.8415 21.7344 35.8309C21.8067 35.8205 21.879 35.7998 21.9513 35.7895C22.0132 35.7687 22.0753 35.7584 22.1372 35.7376C23.1703 35.4887 24.1722 35.1465 25.1329 34.742C23.4905 36.9925 21.2902 38.8075 18.7181 40C19.906 39.9171 21.094 39.72 22.2405 39.3882C26.4035 38.154 29.9055 35.3435 32.0024 31.5582C31.5789 33.9538 30.6285 36.2355 29.2236 38.2265C30.2274 37.5615 31.1525 36.7894 31.9818 35.9244C34.2957 33.4976 35.8142 30.4175 36.3307 27.1093C36.6833 28.7517 36.7843 30.4363 36.6303 32.1078C44.0886 21.6645 37.2501 10.8375 34.3888 7.98564C34.3784 7.96491 34.3681 7.95436 34.3681 7.93364C34.3577 7.94418 34.3577 7.94418 34.3577 7.95436C34.3577 7.944 34.3577 7.944 34.3473 7.93364C34.3473 8.05818 34.3369 8.18273 34.3267 8.30709C34.2981 8.53947 34.2637 8.77111 34.2234 9.00182C34.1717 9.23 34.1098 9.45818 34.0477 9.68636C33.9743 9.91076 33.8916 10.1322 33.7998 10.35C33.7049 10.5647 33.6015 10.7758 33.49 10.9827C33.3763 11.1798 33.2523 11.3871 33.1181 11.5738C32.9853 11.7664 32.844 11.9533 32.6946 12.1338C32.5396 12.3205 32.3743 12.4865 32.2091 12.6524C32.1058 12.7458 32.0127 12.8287 31.9095 12.9116C31.8268 12.9844 31.7545 13.0465 31.6718 13.1189C31.486 13.2644 31.2999 13.3989 31.0935 13.5235C30.8972 13.648 30.6905 13.7725 30.4839 13.8762C30.269 13.9773 30.0521 14.0741 29.8332 14.1665C29.6131 14.2498 29.389 14.3225 29.1617 14.3844C28.9334 14.446 28.7025 14.4978 28.4696 14.5398C28.2319 14.5815 27.9944 14.6022 27.7671 14.6229C27.6019 14.6333 27.4365 14.6436 27.2713 14.6436C27.0337 14.6436 26.796 14.6229 26.5687 14.602C26.3312 14.5813 26.0937 14.5502 25.8664 14.4984C25.6287 14.4569 25.4016 14.3947 25.1743 14.322H25.1639C25.3912 14.3013 25.6185 14.2805 25.8458 14.2391C26.079 14.1983 26.3099 14.1464 26.5379 14.0835C26.7652 14.0216 26.9892 13.9489 27.2092 13.8656C27.4365 13.7827 27.6534 13.6791 27.86 13.5753C28.0769 13.4716 28.2732 13.3576 28.4798 13.2331C28.6761 13.0984 28.8724 12.9635 29.0584 12.8184C29.2442 12.6732 29.4198 12.5176 29.5851 12.3516C29.7607 12.196 29.9157 12.0198 30.0707 11.8435C30.2219 11.6617 30.3665 11.4749 30.5045 11.2835C30.5251 11.2524 30.5459 11.2107 30.5666 11.1798C30.6702 11.016 30.7701 10.85 30.8662 10.6818C30.9798 10.476 31.0832 10.2649 31.176 10.0493C31.2693 9.83202 31.352 9.61056 31.4239 9.38564C31.4962 9.16782 31.5479 8.93964 31.5995 8.71146C31.641 8.47291 31.6822 8.24473 31.7029 8.01673C31.7235 7.77818 31.7441 7.53964 31.7441 7.31127C31.7441 7.14545 31.7339 6.97964 31.7235 6.81364C31.7029 6.57509 31.6718 6.34691 31.641 6.11873C31.6001 5.88497 31.5484 5.65316 31.486 5.424C31.4137 5.20618 31.3414 4.978 31.2587 4.76036C31.176 4.54236 31.0728 4.32473 30.9695 4.11727C30.8558 3.91 30.7422 3.70236 30.6182 3.50545C30.4865 3.3112 30.3487 3.12093 30.2051 2.93491C30.0501 2.75855 29.8951 2.58236 29.7299 2.406C29.6472 2.32309 29.5542 2.22964 29.4613 2.14691C28.999 1.78662 28.5199 1.44746 28.0254 1.13055C27.9588 1.09182 27.8898 1.05721 27.8188 1.02691C27.4779 0.808909 27.1577 0.694909 26.8375 0.591273" fill="#E0234E"/>
</svg>
